<?xml version="1.0" encoding="utf-8"?>
<!-- Generator: Adobe Illustrator 23.0.5, SVG Export Plug-In . SVG Version: 6.00 Build 0)  -->
<svg version="1.1" id="illustration" xmlns="http://www.w3.org/2000/svg" xmlns:xlink="http://www.w3.org/1999/xlink" x="0px"
	 y="0px" viewBox="0 0 1920 1080" style="enable-background:new 0 0 1920 1080;" xml:space="preserve">
<style type="text/css">
	.st0{fill:#F8F0FB;}
	.st1{fill:#D4CDFA;}
	.st2{fill:#F5E8F9;}
	.st3{fill:#FF4A9A;}
	.st4{fill:#FF1D9C;}
	.st5{fill:#A74AFF;}
	.st6{fill:#839FFF;}
	.st7{fill:url(#SVGID_1_);}
	.st8{fill:url(#SVGID_2_);}
	.st9{fill:url(#SVGID_3_);}
	.st10{fill:url(#SVGID_4_);}
	.st11{fill:#FFFFFF;}
	.st12{fill:#C69CE5;}
	.st13{fill:#DCB0EA;}
	.st14{fill:#6877FF;}
	.st15{fill:url(#SVGID_5_);}
	.st16{fill:url(#SVGID_6_);}
	.st17{fill:url(#SVGID_7_);}
	.st18{fill:url(#SVGID_8_);}
	.st19{opacity:0.62;fill:url(#SVGID_9_);}
	.st20{fill:url(#SVGID_10_);}
	.st21{fill:#ED39AC;}
	.st22{fill:none;}
	.st23{fill:url(#SVGID_11_);}
	.st24{opacity:0.83;fill:url(#SVGID_12_);}
	.st25{fill:url(#SVGID_13_);}
	.st26{opacity:0.62;fill:url(#SVGID_14_);}
	.st27{fill:url(#SVGID_15_);}
	.st28{fill:url(#SVGID_16_);}
	.st29{opacity:0.62;fill:url(#SVGID_17_);}
	.st30{fill:url(#SVGID_18_);}
	.st31{fill:url(#SVGID_19_);}
	.st32{fill:url(#SVGID_20_);}
	.st33{fill:url(#SVGID_21_);}
	.st34{opacity:0.83;fill:url(#SVGID_22_);}
	.st35{fill:url(#SVGID_23_);}
	.st36{fill:url(#SVGID_24_);}
	.st37{fill:url(#SVGID_25_);}
	.st38{fill:url(#SVGID_26_);}
	.st39{fill:url(#SVGID_27_);}
	.st40{fill:#E87A8D;}
	.st41{fill:url(#SVGID_28_);}
	.st42{opacity:0.62;fill:url(#SVGID_29_);}
	.st43{fill:url(#SVGID_30_);}
	.st44{fill:url(#SVGID_31_);}
	.st45{fill:url(#SVGID_32_);}
	.st46{fill:url(#SVGID_33_);}
	.st47{fill:#77485E;}
	.st48{fill:url(#SVGID_34_);}
	.st49{fill:url(#SVGID_35_);}
	.st50{fill:url(#SVGID_36_);}
	.st51{fill:url(#SVGID_37_);}
	.st52{fill:url(#SVGID_38_);}
	.st53{fill:url(#SVGID_39_);}
	.st54{fill:url(#SVGID_40_);}
	.st55{fill:url(#SVGID_41_);}
	.st56{fill:url(#SVGID_42_);}
	.st57{fill:#E37E7F;}
	.st58{fill:url(#SVGID_43_);}
	.st59{fill:url(#SVGID_44_);}
	.st60{fill:#9F4A8B;}
	.st61{fill:url(#SVGID_45_);}
	.st62{fill:url(#SVGID_46_);}
	.st63{fill:url(#SVGID_47_);}
	.st64{fill:url(#SVGID_48_);}
	.st65{fill:url(#SVGID_49_);}
	.st66{fill:url(#SVGID_50_);}
	.st67{fill:url(#SVGID_51_);}
	.st68{fill:url(#SVGID_52_);}
	.st69{fill:url(#SVGID_53_);}
	.st70{fill:url(#SVGID_54_);}
	.st71{fill:url(#SVGID_55_);}
	.st72{fill:url(#SVGID_56_);}
	.st73{fill:url(#SVGID_57_);}
	.st74{opacity:0.62;fill:url(#SVGID_58_);}
	.st75{opacity:0.62;fill:url(#SVGID_59_);}
	.st76{opacity:0.62;fill:url(#SVGID_60_);}
	.st77{opacity:0.62;fill:url(#SVGID_61_);}
	.st78{opacity:0.62;fill:url(#SVGID_62_);}
	.st79{opacity:0.5;fill:url(#SVGID_63_);}
	.st80{opacity:0.62;fill:url(#SVGID_64_);}
	.st81{opacity:0.62;fill:url(#SVGID_65_);}
	.st82{opacity:0.62;fill:url(#SVGID_66_);}
	.st83{opacity:0.62;fill:url(#SVGID_67_);}
	.st84{opacity:0.62;fill:url(#SVGID_68_);}
	.st85{fill:url(#SVGID_69_);}
	.st86{fill:url(#SVGID_70_);}
	.st87{opacity:0.83;fill:url(#SVGID_71_);}
	.st88{fill:url(#SVGID_72_);}
	.st89{fill:url(#SVGID_73_);}
	.st90{opacity:0.5;fill:url(#SVGID_74_);}
	.st91{opacity:0.62;fill:url(#SVGID_75_);}
	.st92{opacity:0.62;fill:url(#SVGID_76_);}
	.st93{fill:url(#SVGID_77_);}
	.st94{fill:url(#SVGID_78_);}
	.st95{opacity:0.84;fill:url(#SVGID_79_);}
	.st96{opacity:0.84;fill:url(#SVGID_80_);}
	.st97{opacity:0.84;fill:url(#SVGID_81_);}
	.st98{opacity:0.62;fill:url(#SVGID_82_);}
	.st99{fill:url(#SVGID_83_);}
	.st100{fill:url(#SVGID_84_);}
	.st101{fill:url(#SVGID_85_);}
	.st102{fill:url(#SVGID_86_);}
	.st103{fill:url(#SVGID_87_);}
	.st104{fill:url(#SVGID_88_);}
	.st105{fill:url(#SVGID_89_);}
	.st106{fill:#D7E2FF;}
	.st107{fill:#D7D9FF;}
	.st108{fill:url(#SVGID_90_);}
	.st109{fill:url(#SVGID_91_);}
	.st110{fill:url(#SVGID_92_);}
	.st111{opacity:0.86;fill:url(#SVGID_93_);}
	.st112{fill:url(#SVGID_94_);}
	.st113{fill:url(#SVGID_95_);}
	.st114{fill:url(#SVGID_96_);}
	.st115{fill:url(#SVGID_97_);}
	.st116{fill:#FF97ED;}
	.st117{fill:url(#SVGID_98_);}
	.st118{fill:url(#SVGID_99_);}
	.st119{opacity:0.62;fill:url(#SVGID_100_);}
	.st120{opacity:0.62;fill:url(#SVGID_101_);}
	.st121{fill:url(#SVGID_102_);}
	.st122{opacity:0.62;fill:url(#SVGID_103_);}
	.st123{fill:url(#SVGID_104_);}
	.st124{fill:url(#SVGID_105_);}
	.st125{fill:url(#SVGID_106_);}
	.st126{fill:url(#SVGID_107_);}
	.st127{fill:url(#SVGID_108_);}
	.st128{fill:url(#SVGID_109_);}
	.st129{fill:url(#SVGID_110_);}
	.st130{fill:url(#SVGID_111_);}
	.st131{fill:#FFACFF;}
	.st132{opacity:0.62;fill:url(#SVGID_112_);}
	.st133{fill:url(#SVGID_113_);}
	.st134{fill:url(#SVGID_114_);}
	.st135{fill:url(#SVGID_115_);}
	.st136{fill:url(#SVGID_116_);}
	.st137{fill:url(#SVGID_117_);}
	.st138{opacity:0.62;fill:url(#SVGID_118_);}
	.st139{fill:url(#SVGID_119_);}
	.st140{fill:url(#SVGID_120_);}
	.st141{fill:url(#SVGID_121_);}
	.st142{fill:url(#SVGID_122_);}
	.st143{fill:url(#SVGID_123_);}
	.st144{fill:url(#SVGID_124_);}
	.st145{fill:url(#SVGID_125_);}
	.st146{fill:url(#SVGID_126_);}
	.st147{fill:url(#SVGID_127_);}
	.st148{fill:url(#SVGID_128_);}
	.st149{fill:url(#SVGID_129_);}
	.st150{fill:url(#SVGID_130_);}
	.st151{fill:#9F3E8B;}
	.st152{fill:url(#SVGID_131_);}
	.st153{fill:#FFEBED;}
	.st154{fill:#FF9AAB;}
	.st155{opacity:0.62;fill:url(#SVGID_132_);}
	.st156{fill:url(#SVGID_133_);}
	.st157{fill:url(#SVGID_134_);}
	.st158{fill:url(#SVGID_135_);}
	.st159{fill:url(#SVGID_136_);}
	.st160{opacity:0.62;fill:url(#SVGID_137_);}
	.st161{opacity:0.62;fill:url(#SVGID_138_);}
	.st162{opacity:0.62;fill:url(#SVGID_139_);}
	.st163{opacity:0.5;fill:url(#SVGID_140_);}
	.st164{fill:url(#SVGID_141_);}
	.st165{fill:url(#SVGID_142_);}
	.st166{opacity:0.3;fill:url(#SVGID_143_);}
</style>
<ellipse class="st0" cx="1361.6" cy="740.4" rx="266.5" ry="300.3"/>
<ellipse class="st0" cx="312.5" cy="255" rx="206.9" ry="233.1"/>
<g>
	<path class="st1" d="M1018.9,554c-46.2,0-83.7-42.3-83.7-94.3s37.6-94.3,83.7-94.3c46.2,0,83.7,42.3,83.7,94.3
		S1065.1,554,1018.9,554z M1018.9,366.7c-45.5,0-82.5,41.7-82.5,93s37,93,82.5,93c45.5,0,82.5-41.7,82.5-93
		S1064.4,366.7,1018.9,366.7z"/>
</g>
<ellipse class="st0" cx="646" cy="766.6" rx="156" ry="175.8"/>
<ellipse class="st2" cx="1223.8" cy="446.3" rx="13.7" ry="15.5"/>
<path class="st3" d="M1724.9,865.6c0,5.3-3.8,9.6-8.5,9.6c-4.7,0-8.5-4.3-8.5-9.6s3.8-9.6,8.5-9.6
	C1721.1,856,1724.9,860.3,1724.9,865.6z"/>
<path class="st4" d="M1321.7,802.4c0,4-2.8,7.2-6.4,7.2c-3.5,0-6.4-3.2-6.4-7.2s2.9-7.2,6.4-7.2
	C1318.9,795.3,1321.7,798.5,1321.7,802.4z"/>
<ellipse class="st5" cx="1460.3" cy="370.1" rx="6" ry="6.8"/>
<path class="st6" d="M483.5,682.3c0,2.7-1.9,4.8-4.3,4.8c-2.4,0-4.3-2.2-4.3-4.8c0-2.7,1.9-4.8,4.3-4.8
	C481.5,677.5,483.5,679.7,483.5,682.3z"/>
<path class="st6" d="M1656.9,631.3c0,2.7-1.9,4.8-4.3,4.8c-2.4,0-4.3-2.2-4.3-4.8c0-2.7,1.9-4.8,4.3-4.8
	C1655,626.5,1656.9,628.7,1656.9,631.3z"/>
<path class="st5" d="M1119.7,989.8c0,2.7-1.9,4.8-4.3,4.8c-2.4,0-4.3-2.2-4.3-4.8c0-2.7,1.9-4.8,4.3-4.8
	C1117.8,985,1119.7,987.2,1119.7,989.8z"/>
<g>
	<path class="st1" d="M416.9,918.3c-10.6,0-19.3-9.7-19.3-21.7c0-12,8.6-21.7,19.3-21.7c10.6,0,19.3,9.7,19.3,21.7
		C436.1,908.6,427.5,918.3,416.9,918.3z M416.9,876.3c-9.9,0-18,9.1-18,20.3c0,11.2,8.1,20.3,18,20.3c9.9,0,18-9.1,18-20.3
		C434.9,885.4,426.8,876.3,416.9,876.3z"/>
</g>
<g>
	<path class="st1" d="M1497.3,363.9c-9.2,0-16.7-8.4-16.7-18.8s7.5-18.8,16.7-18.8s16.7,8.4,16.7,18.8S1506.5,363.9,1497.3,363.9z
		 M1497.3,327.6c-8.5,0-15.5,7.8-15.5,17.5c0,9.6,6.9,17.5,15.5,17.5s15.5-7.8,15.5-17.5C1512.8,335.5,1505.9,327.6,1497.3,327.6z"
		/>
</g>
<g>
	<linearGradient id="SVGID_1_" gradientUnits="userSpaceOnUse" x1="944.5538" y1="211.365" x2="944.5538" y2="180.4158">
		<stop  offset="0" style="stop-color:#D470FF"/>
		<stop  offset="1" style="stop-color:#CF95FF"/>
	</linearGradient>
	<ellipse class="st7" cx="944.6" cy="195.9" rx="13.7" ry="15.5"/>
	<linearGradient id="SVGID_2_" gradientUnits="userSpaceOnUse" x1="849.9248" y1="344.3785" x2="849.9248" y2="326.3416">
		<stop  offset="0" style="stop-color:#7C45B2"/>
		<stop  offset="1" style="stop-color:#9677CC"/>
	</linearGradient>
	<ellipse class="st8" cx="849.9" cy="335.4" rx="8" ry="9"/>
	<g>
		<linearGradient id="SVGID_3_" gradientUnits="userSpaceOnUse" x1="912.2244" y1="376.5331" x2="912.2244" y2="224.7172">
			<stop  offset="0" style="stop-color:#7C45B2"/>
			<stop  offset="1" style="stop-color:#9677CC"/>
		</linearGradient>
		<path class="st9" d="M880.9,224.7c0,0-10.6,6.1-17.3,21.2c-4.7,10.5-4.3,27.8-4.3,27.8s0,58.7,27.8,102.8l0,0l6.2-11.3l64.5-2.7
			l7.4-10.3L880.9,224.7z"/>
		<linearGradient id="SVGID_4_" gradientUnits="userSpaceOnUse" x1="918.6668" y1="376.5331" x2="918.6668" y2="211.6148">
			<stop  offset="0" style="stop-color:#9570FF"/>
			<stop  offset="1" style="stop-color:#CF95FF"/>
		</linearGradient>
		<path class="st10" d="M887.1,376.5c0,0-20-68-18.5-135.9c0,0,11.6-23.9,36.3-28.1c22.4-3.8,45.2,5.5,55,25.4
			c0,0,7.5,12.7,8.7,49.7c1.4,42.3-3.4,64.7-3.4,64.7s-37.7,17.8-66,2.1L887.1,376.5z"/>
		<g>
			<path class="st11" d="M892.5,278.5c0,2.9,0.1,5.7,0.1,8.5c0.1,2.8,0.1,5.6,0.3,8.4c0.3,0,0.6,0,1,0c0.3,0,0.6,0,1-0.1
				c0.4,0,0.8-0.1,1.3-0.1c0.4,0,0.9-0.1,1.3-0.2c0-0.6,0-1.3-0.1-1.9c0-0.6-0.1-1.2-0.1-1.9c-0.1-2.2-0.2-4.4-0.4-6.5
				c-0.2-2.2-0.3-4.3-0.5-6.5l4.7-0.3c0,3.5,0,6.9,0,10.3c0.1,3.4,0.2,6.9,0.4,10.3c0.1,1.7,0.2,3.4,0.3,5.1
				c0.1,1.7,0.3,3.4,0.4,5.1l-4.4,0.3c0-1.7-0.1-3.4-0.1-5.1c0-1.7-0.1-3.4-0.1-5.1c-0.7,0-1.5,0-2.2,0c-0.7,0-1.4,0-2.2,0.1l-0.2,0
				l0.2,4.4c0.1,1,0.1,2,0.2,3c0.1,1,0.1,2,0.2,3l-4.4,0.3c0-2.1-0.1-4.1-0.2-6.1c-0.1-2-0.2-4.1-0.3-6.1
				c-0.3-6.2-0.8-12.4-1.3-18.5L892.5,278.5z"/>
			<path class="st11" d="M912,296.7c-0.4,0-0.8,0-1.2,0c-0.4,0-0.8,0-1.2,0.1c-0.2,0-0.5,0-0.7,0.1c-0.2,0-0.5,0.1-0.7,0.1l0.3,7.7
				c1-0.1,2.1-0.2,3-0.4c1-0.2,2-0.4,3.1-0.6l0.2,4.5c-0.7,0-1.4,0-2.1,0.1c-0.7,0-1.3,0.1-2,0.1c-1,0.1-2,0.2-2.9,0.2
				c-1,0.1-2,0.2-3,0.4c0-2.7-0.1-5.3-0.1-8c-0.1-2.6-0.2-5.3-0.3-8c-0.1-2.6-0.3-5.1-0.5-7.6c-0.2-2.5-0.4-5.1-0.7-7.6
				c1.5,0,3,0,4.3-0.1c0.9-0.1,1.7-0.1,2.6-0.3c0.9-0.1,1.8-0.2,2.8-0.4l0.3,5c-0.8-0.1-1.6-0.2-2.4-0.2c-0.8,0-1.5,0-2.3,0l-0.7,0
				c0,1.8,0,3.6,0,5.4c0,1.8,0.1,3.6,0.2,5.4c0.3,0,0.7,0,1,0c0.3,0,0.7,0,1-0.1c0.3,0,0.6,0,0.9-0.1c0.3,0,0.6-0.1,0.9-0.1
				L912,296.7z"/>
			<path class="st11" d="M926.6,307.4c-0.7,0-1.4,0-2.1,0.1c-0.7,0-1.3,0.1-2,0.1c-1,0.1-2,0.2-2.9,0.2c-1,0.1-2,0.2-3,0.4
				c0-2.7-0.1-5.3-0.1-8c-0.1-2.6-0.2-5.3-0.3-8c-0.1-2.6-0.3-5.1-0.5-7.6c-0.2-2.5-0.4-5.1-0.7-7.6c0.1,0,0.3,0,0.4,0
				c0.1,0,0.3,0,0.5,0c0.2,0,0.4,0,0.7,0c0.4,0,0.8-0.1,1.3-0.1c0.5-0.1,1-0.1,1.4-0.2c-0.1,2.1-0.1,4.3,0,6.6
				c0,2.3,0.1,4.6,0.2,6.9c0.1,2.3,0.2,4.7,0.3,7c0.1,2.3,0.2,4.6,0.3,6.7c1-0.1,2.1-0.2,3-0.4c1-0.2,2-0.4,3.1-0.6L926.6,307.4z"/>
			<path class="st11" d="M938.1,306.6c-0.7,0-1.4,0-2.1,0.1c-0.7,0-1.3,0.1-2,0.1c-1,0.1-2,0.1-2.9,0.2c-1,0.1-2,0.2-3,0.4
				c0-2.7-0.1-5.3-0.1-8c-0.1-2.6-0.2-5.3-0.3-8c-0.1-2.6-0.3-5.1-0.5-7.6c-0.2-2.5-0.4-5.1-0.7-7.6c0.1,0,0.3,0,0.4,0
				c0.1,0,0.3,0,0.5,0c0.2,0,0.4,0,0.7,0c0.4,0,0.8-0.1,1.3-0.1c0.5-0.1,1-0.1,1.4-0.2c-0.1,2.1-0.1,4.3,0,6.6
				c0,2.3,0.1,4.6,0.2,6.9c0.1,2.3,0.2,4.7,0.3,7c0.1,2.3,0.2,4.6,0.3,6.7c1-0.1,2.1-0.2,3-0.4c1-0.2,2-0.4,3.1-0.6L938.1,306.6z"/>
			<path class="st11" d="M951.8,290.5c0.2,2.9,0.1,5.4-0.1,7.4c-0.2,2-0.6,3.7-1.2,5c-0.5,1.3-1.2,2.3-2,2.9c-0.8,0.6-1.6,1-2.6,1
				c-0.9,0.1-1.8-0.2-2.7-0.6c-0.8-0.5-1.6-1.3-2.3-2.5c-0.7-1.2-1.2-2.8-1.7-4.8c-0.5-2-0.8-4.5-0.9-7.4c-0.2-3-0.1-5.5,0.1-7.6
				c0.2-2.1,0.6-3.8,1.2-5.2c0.5-1.3,1.2-2.3,2-3c0.8-0.6,1.6-1,2.6-1c0.9-0.1,1.8,0.2,2.7,0.7c0.8,0.5,1.6,1.4,2.3,2.6
				c0.7,1.3,1.2,2.9,1.7,5C951.3,284.9,951.7,287.5,951.8,290.5z M947.5,290.8c-0.1-2.3-0.3-4.2-0.5-5.7c-0.2-1.5-0.4-2.8-0.7-3.7
				c-0.3-1-0.6-1.6-0.9-2.1c-0.3-0.4-0.6-0.6-1-0.6c-0.3,0-0.7,0.3-0.9,0.7c-0.3,0.5-0.5,1.2-0.7,2.2c-0.2,1-0.3,2.3-0.3,3.8
				c0,1.6,0,3.5,0.1,5.7c0.1,2.2,0.3,4.1,0.5,5.6c0.2,1.5,0.4,2.7,0.7,3.6c0.3,0.9,0.6,1.5,0.9,1.9c0.3,0.4,0.7,0.5,1,0.5
				c0.3,0,0.6-0.2,0.9-0.7c0.3-0.4,0.5-1.1,0.7-2.1c0.2-0.9,0.3-2.2,0.3-3.7C947.7,294.8,947.7,292.9,947.5,290.8z"/>
		</g>
		<path class="st12" d="M868.6,240.6c0,0,0,68,18.5,135.9C887.1,376.5,860.7,303.3,868.6,240.6z"/>
		<path class="st13" d="M868.6,239.3c0,0,42.8-52.2,87.2,1.3c18.3,22,9.4,111.7,9.4,111.7s11.7-72.7-5.3-114.4c0,0-7.4-17-26.5-23
			C910.7,207.6,887.8,211.3,868.6,239.3z"/>
	</g>
</g>
<polygon class="st14" points="783.9,177.2 798.7,195.5 804.5,188 790.5,170.6 "/>
<polygon class="st14" points="1645.9,691.1 1679.4,666.3 1683.7,682.8 1656.9,702.6 "/>
<polygon class="st4" points="936.6,681.1 965.2,700 959,711.2 932.1,690.9 "/>
<polygon class="st4" points="437.5,161.6 465.7,142 471.6,153.3 443.1,170.6 "/>
<polygon class="st5" points="419.9,972.7 448.2,947.9 455,958.6 429.1,981.7 "/>
<g>
	<g>
		<path class="st1" d="M1069.5,204.8l-0.4-0.1l-74.5-14.6l0.1-0.7c5.9-47.3,26.3-80.6,26.5-80.9l0.2-0.3l0.3,0
			c50.4-3.5,79.7,16.6,80,16.8l0.4,0.2l-0.1,0.5c-5.1,30.3-31.9,78.2-32.2,78.7L1069.5,204.8z M995.9,189l73,14.3
			c2.5-4.6,26.7-48.7,31.7-77.3c-3.5-2.2-31.8-19.5-78.6-16.3C1020.1,112.9,1001.6,144.7,995.9,189z"/>
	</g>
	<g>
		<path class="st1" d="M1025.4,146.3c-1,0-1.9-0.2-2.8-0.6c-2.3-1-4.1-3.1-5-5.9c-0.9-2.8-0.8-6,0.2-9c1-3,2.8-5.4,5.1-6.8
			c2.3-1.5,4.9-1.7,7.2-0.7c2.3,1,4.1,3.1,5,5.9c0.9,2.8,0.8,6-0.2,9C1033.2,143.1,1029.3,146.3,1025.4,146.3z M1027.3,124
			c-1.3,0-2.5,0.4-3.8,1.1c-2.1,1.3-3.7,3.4-4.6,6.1c-0.9,2.7-1,5.5-0.2,8c0.8,2.5,2.3,4.3,4.2,5.1c4.1,1.8,8.9-1.3,10.8-6.8
			c0.9-2.7,1-5.5,0.2-8c-0.8-2.5-2.3-4.3-4.2-5.1C1028.9,124.2,1028.1,124,1027.3,124z"/>
	</g>
	<g>
		<path class="st1" d="M1074,178.2c-0.6,0-1.2-0.1-1.7-0.3c-1.2-0.5-1.3-3.1-1.3-7.8c-0.1-9.2-0.2-24.5-11.1-26.6
			c-9.9-1.9-25.7,11.3-37.2,20.9c-8.2,6.9-13,10.8-15.4,10.4c-6.3-1-8-9.8-8.1-10.1l1.2-0.3c0,0.1,1.6,8.2,7,9.1
			c2,0.3,8.1-4.8,14.5-10.1c11.7-9.8,27.7-23.2,38.1-21.2c11.9,2.3,12.1,18.3,12.1,27.9c0,2.8,0,6.2,0.5,6.6c2.2,0.9,8.7-1.6,11-2.6
			l0.4,1.3C1083.5,175.7,1077.6,178.2,1074,178.2z"/>
	</g>
</g>
<g>
	<g>
		<path class="st1" d="M1466.4,277.5l-0.2-0.3l-46.3-68.7l0.1-0.3c2.1-10.2,11.1-22.4,11.4-22.9l0.1-0.1l0.2-0.1
			c0.3-0.1,33-12.5,65.2-15.6l0.3,0l0.2,0.3c0.3,0.4,31.9,40.7,48.5,72.4l0.4,0.8l-60.1,12.6c-1,0.6-10.3,6.7-18.3,20.2l62.9-15.6
			l0.3,1.3L1466.4,277.5z M1421.2,208.1l45.5,67.4c8.7-14.9,19-21.3,19.1-21.3l0.2-0.1l58.5-12.3c-16-30.1-45-67.6-47.8-71.1
			c-30.8,3-61.9,14.5-64.5,15.5C1431.2,187.7,1423.2,198.9,1421.2,208.1z"/>
	</g>
	<g>
		<path class="st1" d="M1484,256.4c-14.6-18.4-52.2-69.8-52.6-70.3l0.9-0.9c0.4,0.5,38,51.9,52.6,70.3L1484,256.4z"/>
	</g>
	<g>
		<path class="st1" d="M1523.8,263l-1.2-0.4c3.3-11.7,16.4-19.3,17-19.6l0.6,1.2C1540.1,244.2,1527,251.8,1523.8,263z"/>
	</g>
</g>
<g>
	<g>
		<path class="st1" d="M167.7,883.7l-0.4-0.1l-82.2-20.4l0.3-1.3l80.8,20c-10.4-17.7-22.6-25.6-23.7-26.3l-76.5-16.1l0.4-0.8
			c21.3-40.5,61.6-92,62-92.5l0.2-0.3l0.3,0c41.2,3.9,82.9,19.8,83.3,20l0.2,0.1l0.1,0.1c0.5,0.7,11.9,16.2,14.6,29.2l0.1,0.3
			l-0.2,0.3L167.7,883.7z M67.8,838.5l75.1,15.8c0.1,0.1,13.4,8.3,24.5,27.4l58.3-86.5c-2.6-11.9-13-26.5-14.1-28.2
			c-2.9-1.1-42.9-16-82.5-19.8C125.9,751.3,88.4,799.7,67.8,838.5z"/>
	</g>
	<g>
		<path class="st1" d="M145.2,856.8l-0.9-0.9c18.7-23.5,66.7-89.1,67.2-89.8l0.9,0.9C211.9,767.6,163.9,833.2,145.2,856.8z"/>
	</g>
	<g>
		<path class="st1" d="M94.6,865.2c-4-14.4-20.8-24.1-21-24.2l0.5-1.2c0.7,0.4,17.4,10.1,21.6,25L94.6,865.2z"/>
	</g>
	<g>
		<path class="st1" d="M204.5,827.4c-6.5-19.9-18.9-24.4-19.1-24.4l0.4-1.3c0.5,0.2,13.1,4.7,19.9,25.2L204.5,827.4z"/>
	</g>
	<g>
		<path class="st1" d="M218.2,806.8c-3.6-17.9-16.3-26.3-16.4-26.4l0.6-1.2c0.1,0.1,13.3,8.8,17,27.3L218.2,806.8z"/>
	</g>
</g>
<g>
	<g>
		<path class="st1" d="M1388.8,978.7l-0.2-0.4c-0.2-0.6-22.8-59.3-26.2-122.5l0-0.5l0.4-0.1c0.7-0.2,67.4-17.3,117.9-25.1l0.5-0.1
			l0.1,0.5c0.2,0.8,18.9,83.4,18.9,123.8v0.5l-0.4,0.1L1388.8,978.7z M1363.6,856.2c3.3,59.8,23.8,115.6,25.9,121.1l109.7-23.5
			c-0.1-38.7-17.2-115.4-18.8-122.5C1432.2,838.8,1369.5,854.7,1363.6,856.2z"/>
	</g>
	<g>
		<g>
			<path class="st1" d="M1407.8,931.5l-1.4-8.4l0.6-0.1c0.4,0,0.9-0.1,1.3-0.2c0.3,0,0.5-0.1,0.8-0.1c-0.5-3.2-0.9-6.4-1.4-9.6
				c-0.5-3.4-1-6.8-1.6-10.2c-0.4-2.3-0.8-4.5-1.3-6.7l-1.2-6c-0.3,0.1-0.7,0.2-1,0.3c-0.5,0.1-1,0.3-1.6,0.5l-0.6,0.2l-1.4-8.2
				l0.6-0.1c1.5-0.2,3-0.5,4.5-0.8c1.5-0.3,3-0.6,4.5-0.9l1.6-0.4c0.5-0.1,1.1-0.3,1.6-0.4l0.6-0.2l1.2,7.8l-0.5,0.1
				c-0.5,0.1-0.9,0.2-1.4,0.3c-0.3,0-0.5,0.1-0.8,0.2c0.4,3.8,0.9,7.6,1.4,11.3c0.6,3.9,1.2,7.9,1.9,11.8c0.6,3.2,1.2,6.5,1.9,9.7
				c0.5-0.1,0.9-0.2,1.4-0.3c0.6-0.2,1.3-0.3,1.9-0.5l0.6-0.2l1,7.9l-0.5,0.1c-0.8,0.1-1.6,0.3-2.3,0.4c-0.8,0.2-1.6,0.3-2.3,0.5
				c-1.3,0.3-2.6,0.6-3.8,0.9c-1.3,0.3-2.5,0.7-3.8,1.1L1407.8,931.5z M1407.6,924.2l1,5.8c1.1-0.3,2.2-0.6,3.3-0.9
				c1.3-0.3,2.6-0.7,3.9-1c0.8-0.2,1.6-0.3,2.4-0.5c0.6-0.1,1.2-0.2,1.8-0.3l-0.7-5.3c-0.5,0.1-0.9,0.3-1.4,0.4
				c-0.7,0.2-1.3,0.3-1.9,0.5l-0.5,0.1l-0.1-0.6c-0.7-3.4-1.4-6.9-2-10.3c-0.7-3.9-1.3-7.9-1.9-11.8c-0.6-3.9-1.1-7.9-1.5-11.9
				l-0.1-0.6l0.5-0.1c0.5-0.1,0.9-0.2,1.4-0.3c0.3,0,0.5-0.1,0.8-0.1l-0.8-5.3c-0.4,0.1-0.7,0.2-1.1,0.3l-1.6,0.4
				c-1.5,0.3-3.1,0.7-4.6,0.9c-1.3,0.2-2.7,0.5-4,0.7l0.9,5.6c0.4-0.1,0.7-0.2,1-0.3c0.5-0.1,1-0.3,1.6-0.4l0.5-0.1l1.5,7.2
				c0.4,2.2,0.9,4.4,1.3,6.7c0.6,3.4,1.1,6.8,1.6,10.2c0.5,3.4,1,6.8,1.5,10.2l0.1,0.6l-0.6,0.1c-0.4,0.1-0.9,0.1-1.4,0.2
				C1408.2,924.2,1407.9,924.2,1407.6,924.2z"/>
		</g>
		<g>
			<path class="st1" d="M1422.4,928.9l0-0.8c0-1.9-0.2-4.1-0.4-6.4c-0.2-2.4-0.5-4.9-0.8-7.4c-0.3-2.6-0.7-5.2-1.1-7.8
				c-0.4-2.6-0.9-5.2-1.3-7.7c-0.4-2.5-0.9-4.9-1.3-7.1c-0.4-2.2-0.8-4.1-1.1-5.8c-0.4-1.9-0.8-3.7-1.1-5.3l-0.1-0.7l0.6,0
				c0.6,0,1.3-0.1,2-0.2c0.7-0.1,1.4-0.2,2-0.3c0.7-0.1,1.3-0.2,1.9-0.3c0.6-0.1,1.2-0.2,1.7-0.3l0.9-0.2c0.3-0.1,0.5-0.1,0.7-0.2
				c0.3-0.1,0.4-0.1,0.6-0.2l0.5-0.2l5.8,18.5c0.9,2.8,1.6,5.2,2.3,7.2c0-0.4,0-0.8-0.1-1.1c-0.1-1.8-0.2-3.6-0.4-5.4
				c-0.1-1.8-0.3-3.5-0.4-5.2c-0.1-1.7-0.3-3.3-0.4-4.8c-0.3-3.5-0.7-6.9-1-10.2l-0.1-0.6l0.5-0.1c0.4-0.1,0.9-0.1,1.4-0.2
				c0.5-0.1,1-0.1,1.6-0.3c0.6-0.1,1.3-0.3,2-0.4c0.7-0.2,1.5-0.4,2.4-0.6c0.8-0.2,1.7-0.5,2.6-0.8l0.6-0.2l0.1,0.7
				c1.2,8.2,2.4,15.4,3.4,21.4c0.8,4.4,1.5,8.2,2.1,11.4c0.6,3.2,1.2,5.8,1.7,7.8c0.5,2.4,1,4.4,1.5,6l0.2,0.6l-8,2l-0.1-0.6
				c-0.5-3.4-1.1-6.8-1.6-10.3c-0.2-1.5-0.5-3-0.8-4.7c-0.3-1.6-0.5-3.3-0.8-5c-0.3-1.7-0.6-3.4-0.8-5.1c-0.2-1.1-0.4-2.3-0.6-3.3
				c0.1,2.4,0.2,5.1,0.3,7.9c0.2,3.2,0.3,6.5,0.6,10.1c0.2,3.6,0.5,7.1,0.8,10.5l0.1,0.6l-6.5,1.3l-0.2-0.5
				c-1.1-3.3-2.1-6.6-3.1-9.8c-1-3.2-2-6.3-2.9-9.2c-0.7-2.3-1.4-4.5-2.1-6.5l0.5,3.1c0.4,2.4,0.8,4.8,1.3,7.2
				c0.4,2.4,0.9,4.7,1.3,6.8c0.4,2.1,0.8,4,1.1,5.7c0.3,1.7,0.7,3,0.9,3.9l0.2,0.6L1422.4,928.9z M1416.4,881.1
				c0.3,1.4,0.6,3,0.9,4.6c0.3,1.7,0.7,3.6,1.1,5.8c0.4,2.2,0.9,4.6,1.3,7.2c0.4,2.5,0.9,5.1,1.3,7.7c0.4,2.6,0.8,5.2,1.2,7.8
				c0.3,2.5,0.6,5,0.9,7.4c0.2,2.1,0.3,4,0.4,5.7l6.6-2c-0.2-0.9-0.5-2-0.8-3.3c-0.4-1.7-0.7-3.6-1.1-5.7c-0.4-2.1-0.8-4.4-1.3-6.8
				c-0.4-2.4-0.9-4.8-1.3-7.2l-2-11.5l1-0.3c0.6,1.8,1.2,4,2,6.5c0.8,2.5,1.6,5.2,2.6,8.1s1.9,6,2.9,9.2c1,3.1,2,6.2,3,9.3l4.6-0.9
				c-0.3-3.2-0.5-6.6-0.8-10c-0.2-3.5-0.4-6.9-0.6-10.1c-0.2-3.2-0.3-6.1-0.4-8.7c-0.1-2.6-0.2-4.8-0.2-6.5l-0.2-5.7l1.2,5.5
				c0.2,0.8,0.4,1.7,0.5,2.7l0.5,2.9c0.3,1.6,0.6,3.2,0.8,4.9c0.3,1.7,0.6,3.4,0.9,5.1c0.3,1.7,0.5,3.4,0.8,5
				c0.3,1.7,0.5,3.2,0.8,4.7c0.5,3.3,1,6.5,1.5,9.7l5.7-1.5c-0.4-1.5-0.9-3.3-1.3-5.4c-0.5-2.1-1-4.7-1.7-7.9
				c-0.6-3.2-1.4-7-2.1-11.4c-1-5.8-2.1-12.8-3.3-20.7c-0.7,0.2-1.4,0.4-2.1,0.6c-0.9,0.2-1.7,0.4-2.4,0.6c-0.7,0.2-1.4,0.3-2.1,0.4
				c-0.6,0.1-1.2,0.2-1.6,0.3c-0.3,0-0.6,0.1-0.9,0.1c0.3,3.1,0.7,6.3,1,9.6c0.1,1.5,0.3,3.1,0.4,4.8c0.1,1.7,0.3,3.4,0.4,5.2
				c0.1,1.8,0.2,3.6,0.4,5.4c0.1,1.8,0.2,3.6,0.3,5.3l0.2,4l-1.2-3.8c-0.8-2.5-2-6.2-3.5-11.1l-5.5-17.4c0,0-0.1,0-0.2,0
				c-0.2,0.1-0.4,0.1-0.7,0.2l-0.9,0.2c-0.5,0.1-1.1,0.2-1.7,0.3c-0.6,0.1-1.3,0.2-2,0.3c-0.7,0.1-1.4,0.2-2.1,0.3
				C1417.3,881,1416.8,881,1416.4,881.1z"/>
		</g>
		<g>
			<path class="st1" d="M1463.8,919.8c-0.3,0-0.7,0-1-0.1c-0.9-0.1-1.9-0.4-2.9-1c-1-0.5-2-1.3-3-2.4c-1-1.1-2-2.5-2.9-4.2
				c-0.9-1.7-1.8-3.8-2.6-6.3c-0.8-2.5-1.5-5.4-2.1-8.8c-0.6-3.4-0.9-6.4-0.9-9.1c0-2.6,0.1-5,0.5-6.9c0.4-2,0.9-3.7,1.6-5.1
				c0.7-1.4,1.4-2.6,2.2-3.5c0.8-0.9,1.6-1.6,2.5-2.1c0.8-0.5,1.6-0.8,2.2-0.9c0.6-0.1,1.2-0.2,1.8-0.2c0.5,0,1.1,0.1,1.7,0.2
				c0.6,0.1,1.2,0.4,1.7,0.7l0.2,0.2l0.7,7.9l-0.8-0.2c-0.6-0.2-1.1-0.3-1.5-0.3c-0.5,0-0.9,0-1.3,0.1c-0.7,0.2-1.3,0.5-1.8,1.1
				c-0.5,0.6-0.9,1.3-1.2,2.1c-0.3,0.9-0.5,1.8-0.7,2.9c-0.1,1.1-0.2,2.2-0.2,3.3c0,2.6,0.2,5.5,0.7,8.7c0.5,2.7,1.2,5.2,2,7.4
				c0.3,0.9,0.7,1.8,1.2,2.8c0.4,0.9,0.9,1.7,1.4,2.4c0.5,0.7,1,1.3,1.6,1.8c0.3,0.3,0.7,0.4,1,0.6c-0.5-2.5-1.1-5-1.7-7.5
				c-0.7-2.8-1.5-5.5-2.4-8.3l-0.2-0.7l8.2-2l0,0.7c0,0.8,0.1,1.7,0.2,2.8c0.1,1,0.2,2.1,0.3,3.3c0.1,1.2,0.3,2.4,0.4,3.6
				c0.2,1.3,0.4,2.5,0.6,3.8c0,0.3,0.1,0.7,0.3,1.2c0.1,0.5,0.3,1.1,0.4,1.8c0.2,0.6,0.3,1.3,0.5,2c0.2,0.7,0.3,1.3,0.5,1.9
				c0.2,0.6,0.3,1.1,0.4,1.5c0.1,0.4,0.2,0.6,0.2,0.8l0.2,0.5l-0.4,0.3c-0.7,0.6-1.5,1.1-2.2,1.5c-0.7,0.4-1.4,0.7-1.9,0.9
				c-0.7,0.3-1.4,0.5-2,0.7C1464.8,919.8,1464.3,919.8,1463.8,919.8z M1459.1,870.6c-0.5,0-1.1,0.1-1.6,0.2
				c-0.5,0.1-1.2,0.4-1.9,0.8c-0.7,0.4-1.5,1-2.2,1.8c-0.7,0.8-1.4,1.9-2,3.2c-0.6,1.3-1.1,2.9-1.4,4.8c-0.3,1.9-0.5,4.1-0.5,6.7
				c0,2.6,0.3,5.5,0.9,8.8c0.6,3.3,1.3,6.2,2.1,8.6c0.8,2.4,1.6,4.5,2.5,6.1c0.9,1.6,1.8,2.9,2.7,3.9c0.9,1,1.8,1.7,2.7,2.2
				c0.9,0.5,1.7,0.8,2.5,0.9c0.8,0.1,1.5,0.1,2.2-0.1c0.6-0.2,1.2-0.4,1.9-0.6c0.5-0.2,1.2-0.5,1.9-0.9c0.6-0.3,1.1-0.7,1.7-1.1
				c0-0.1-0.1-0.3-0.1-0.5c-0.1-0.4-0.3-0.9-0.4-1.5c-0.2-0.6-0.3-1.2-0.5-1.9c-0.2-0.7-0.3-1.3-0.5-2c-0.2-0.6-0.3-1.2-0.4-1.8
				c-0.1-0.5-0.2-1-0.3-1.3c-0.2-1.3-0.4-2.6-0.6-3.8c-0.2-1.3-0.3-2.5-0.5-3.7c-0.1-1.2-0.2-2.3-0.3-3.3c-0.1-0.7-0.1-1.4-0.1-2.1
				l-5.7,1.4c0.8,2.5,1.5,5.1,2.2,7.7c0.7,2.8,1.3,5.6,1.9,8.5l0.2,0.8l-0.7-0.1c-0.8-0.1-1.6-0.4-2.3-1c-0.7-0.5-1.3-1.2-1.8-2
				c-0.5-0.8-1-1.7-1.5-2.6c-0.5-1-0.9-1.9-1.2-2.9c-0.8-2.3-1.5-4.8-2.1-7.6c-0.5-3.3-0.8-6.3-0.7-9c0-1.1,0.1-2.3,0.2-3.4
				c0.1-1.2,0.4-2.2,0.7-3.2c0.3-1,0.8-1.8,1.4-2.5c0.6-0.7,1.4-1.2,2.3-1.4c0.5-0.1,1-0.1,1.5-0.1c0.3,0,0.7,0.1,1,0.2l-0.5-5.6
				c-0.3-0.2-0.7-0.3-1.1-0.4C1460,870.7,1459.5,870.6,1459.1,870.6z"/>
		</g>
	</g>
	<g>
		<polygon class="st1" points="1467.8,961.6 1466.9,961 1495.2,909.2 1496.1,909.8 		"/>
	</g>
</g>
<g>
	<linearGradient id="SVGID_5_" gradientUnits="userSpaceOnUse" x1="1358.4691" y1="114.4534" x2="1358.4691" y2="92.3122">
		<stop  offset="0" style="stop-color:#C21A8F"/>
		<stop  offset="1" style="stop-color:#FE117E"/>
	</linearGradient>
	<ellipse class="st15" cx="1358.5" cy="103.4" rx="9.8" ry="11.1"/>
	<linearGradient id="SVGID_6_" gradientUnits="userSpaceOnUse" x1="1296.4706" y1="140.4548" x2="1296.4706" y2="80.6692">
		<stop  offset="0" style="stop-color:#DE1A8F"/>
		<stop  offset="1" style="stop-color:#FE117E"/>
	</linearGradient>
	<ellipse class="st16" cx="1296.5" cy="110.6" rx="26.5" ry="29.9"/>
	<linearGradient id="SVGID_7_" gradientUnits="userSpaceOnUse" x1="1188.4429" y1="175.3431" x2="1224.2429" y2="175.3431">
		<stop  offset="0" style="stop-color:#B31A8F"/>
		<stop  offset="1" style="stop-color:#92117E"/>
	</linearGradient>
	<ellipse class="st17" cx="1206.3" cy="175.3" rx="17.9" ry="20.2"/>
	<linearGradient id="SVGID_8_" gradientUnits="userSpaceOnUse" x1="1282.7379" y1="348.1031" x2="1282.7379" y2="114.5536">
		<stop  offset="0" style="stop-color:#B31A8F"/>
		<stop  offset="1" style="stop-color:#92117E"/>
	</linearGradient>
	<path class="st18" d="M1268.2,114.6c0,0-54.5,11.4-58.2,81c0,0,4.6,81.2,30.6,141.4l95.2-3.5l19.6,14.7l0,0l-15.9-108.9
		L1268.2,114.6z"/>
	<linearGradient id="SVGID_9_" gradientUnits="userSpaceOnUse" x1="1240.6388" y1="330.0032" x2="1342.1084" y2="330.0032">
		<stop  offset="0" style="stop-color:#8B8BE0"/>
		<stop  offset="1" style="stop-color:#A177B7"/>
	</linearGradient>
	<polygon class="st19" points="1240.6,336.9 1254.7,323.1 1342.1,323.1 1335.8,333.4 	"/>
	<linearGradient id="SVGID_10_" gradientUnits="userSpaceOnUse" x1="1294.8173" y1="348.1031" x2="1294.8173" y2="110.3903">
		<stop  offset="0" style="stop-color:#C21A8F"/>
		<stop  offset="1" style="stop-color:#FE117E"/>
	</linearGradient>
	<path class="st20" d="M1226.8,187.9c0,0,3,74.8,27.9,135.1c0,0,19.2,6.9,45.8,6.9c28.4,0,41.6-6.9,41.6-6.9l13.3,25
		c0,0,15-93.2,2.4-173.8c0,0-8-39.8-31.3-54.7C1294.9,99.3,1223.8,108.6,1226.8,187.9z"/>
	<g>
		<path class="st11" d="M1265.8,187.3c0.1,6.9,0.2,13.6,0.3,20.4c0.1,6.7,0.3,13.5,0.6,20.2c0.8,0,1.5,0,2.3-0.1
			c0.8-0.1,1.6-0.1,2.3-0.2c1-0.1,2-0.1,3-0.3c1-0.1,2.1-0.2,3.1-0.4c0-1.5-0.1-3-0.1-4.5c-0.1-1.5-0.2-3-0.2-4.5
			c-0.3-5.2-0.6-10.5-1-15.7c-0.4-5.2-0.8-10.4-1.3-15.7l11.3-0.8c-0.1,8.4-0.1,16.6,0,24.9c0.1,8.2,0.4,16.5,0.9,24.8
			c0.2,4.1,0.5,8.1,0.8,12.2c0.3,4,0.6,8.1,1,12.2l-10.5,0.7c-0.1-4.1-0.1-8.2-0.2-12.3c-0.1-4.1-0.2-8.2-0.3-12.2
			c-1.8,0-3.5,0-5.2,0.1c-1.7,0-3.5,0.1-5.2,0.2l-0.4,0l0.6,10.7c0.1,2.4,0.3,4.8,0.4,7.1c0.1,2.3,0.3,4.7,0.5,7.1l-10.5,0.7
			c-0.1-5-0.3-9.9-0.5-14.7c-0.2-4.9-0.4-9.7-0.7-14.6c-0.8-14.8-1.8-29.7-3.2-44.5L1265.8,187.3z"/>
		<path class="st11" d="M1313.6,257.9c-1.2,0-2.5,0-3.7,0.1c-1.2,0-2.5,0.1-3.7,0.2c-2,0.1-4,0.3-6.1,0.5c-2,0.2-4,0.5-6,0.8
			l-0.5-11.1c0.7,0.1,1.4,0.1,2.1,0.1c0.7,0,1.4,0,2.1,0c-0.1-5.4-0.2-10.7-0.3-16c-0.1-5.3-0.3-10.6-0.6-15.9
			c-0.2-3.6-0.4-7.1-0.7-10.5c-0.3-3.5-0.6-7-0.8-10.5c-0.8,0.1-1.6,0.1-2.4,0.2c-0.8,0.1-1.7,0.2-2.5,0.3l-0.5-10.8
			c2.4,0,4.7,0,7.1-0.1c2.4-0.1,4.7-0.2,7.1-0.3c0.9-0.1,1.7-0.1,2.6-0.2c0.9-0.1,1.7-0.2,2.6-0.3l0.3,10.3c-0.7,0-1.4,0.1-2.1,0.1
			c-0.7,0-1.4,0-2.1,0.1c-0.1,6.2-0.1,12.4,0.1,18.6c0.1,6.1,0.4,12.3,0.7,18.5c0.3,5.4,0.7,10.8,1.1,16.2c1-0.1,2-0.1,3-0.3
			c1-0.1,2.1-0.2,3.1-0.4L1313.6,257.9z"/>
		<path class="st11" d="M1340.9,181.5c-0.4,9.6-0.5,19.3-0.5,29.1c0,9.8,0.2,19.4,0.6,28.8l-6.1,0.6c-0.7-9.5-1.5-19.1-2.4-28.8
			c-0.9-9.7-1.8-19.3-2.7-28.8L1340.9,181.5z M1343.8,252.3c0,0.8-0.1,1.6-0.3,2.4c-0.3,0.7-0.6,1.4-1,2c-0.4,0.6-1,1-1.6,1.4
			c-0.6,0.4-1.3,0.6-2.1,0.6c-0.7,0-1.4-0.1-2.1-0.3c-0.6-0.3-1.2-0.7-1.7-1.2c-0.5-0.5-0.9-1.1-1.2-1.8c-0.3-0.7-0.5-1.5-0.5-2.3
			c0-0.8,0.1-1.6,0.3-2.3c0.2-0.7,0.6-1.4,1-2c0.5-0.6,1-1.1,1.6-1.4c0.6-0.3,1.3-0.6,2-0.6c0.7,0,1.4,0.1,2.1,0.3
			c0.7,0.3,1.3,0.7,1.8,1.2c0.5,0.5,0.9,1.1,1.2,1.8C1343.6,250.7,1343.8,251.5,1343.8,252.3z"/>
	</g>
	<path class="st21" d="M1254.7,323.1c0,0-38.9-94.2-24.5-166.7C1230.2,156.3,1232,264.8,1254.7,323.1z"/>
	<path class="st21" d="M1262.6,116.9c0,0,34.7-13.4,64.2,10.5c29.5,23.9,34.2,72.3,34.2,72.3s-3.2-61.9-34.3-80.2
		C1294.8,101,1262.6,116.9,1262.6,116.9z"/>
</g>
<rect y="1.5" class="st22" width="1949" height="1098.1"/>
<g>
	<linearGradient id="SVGID_11_" gradientUnits="userSpaceOnUse" x1="540.6772" y1="721.3221" x2="540.6772" y2="463.0991">
		<stop  offset="0" style="stop-color:#744FD8"/>
		<stop  offset="1" style="stop-color:#3996F7"/>
	</linearGradient>
	<path class="st23" d="M585.1,618c0,0-5.9-1.8-8.3,3s-9.8,61.9-7.8,78c2.1,16.1,8,10.1,8,10.1s-0.6,9.5-4.5,12.2l0,0
		c0,0-0.1-0.1-0.3-0.2c-0.1,0-0.2-0.1-0.4-0.2h0c-2.3-1.5-10.2-6.7-17.5-11.8c-8.6-6-13.7-11-13.7-11s1.2-9.5,1.2-12.2
		c0-2.7-19.1-66.1-37.8-85.8c-17.5-18.3-0.3-121.5,2.1-135.5l0.3-1.6c0,0,15.2,4.5,21.7,9.3c6.5,4.8,30.1,62.8,31.3,92.6
		c1.2,29.8,11.9,46.7,11.9,46.7s3.6-2.2,9.5,0L585.1,618z"/>
	<linearGradient id="SVGID_12_" gradientUnits="userSpaceOnUse" x1="534.0991" y1="720.8741" x2="534.0991" y2="463.0991">
		<stop  offset="0" style="stop-color:#9D68C2"/>
		<stop  offset="1" style="stop-color:#CCEDFF"/>
	</linearGradient>
	<path class="st24" d="M571.9,720.9c-2.3-1.5-10.2-6.7-17.5-11.8c-8.6-6-13.7-11-13.7-11s1.2-9.5,1.2-12.2
		c0-2.7-19.1-66.1-37.8-85.8c-17.5-18.3-0.3-121.5,2.1-135.5l0.3-1.6c0,0,12.4,15.5,17.7,46.3c5.4,30.8-2.2,91.6-2.2,91.6
		s10.7,49.1,37.1,50c0,0-22.1,32.4-13.4,48.6C547.3,702.8,567.9,718,571.9,720.9z"/>
	<linearGradient id="SVGID_13_" gradientUnits="userSpaceOnUse" x1="404.142" y1="1079.8212" x2="404.142" y2="760.3196">
		<stop  offset="0" style="stop-color:#1C257B"/>
		<stop  offset="1" style="stop-color:#482C83"/>
	</linearGradient>
	<path class="st25" d="M521.5,1005.3c-0.5,5.4-1.4,9.8-2.6,13.6v0c-1.9,6.6-4.3,11.5-5.6,17.2c-2.1,8.9-4.5,43.7-4.5,43.7h-62.6
		c2.4-12.9,5.4-22.8,8.9-55c3.4-30.8-15-136.8-16.6-145.9c-0.1-0.4-0.1-0.6-0.1-0.6c-16.1,67.3-55.5,145.3-59.6,149.8
		c-4,4.5-12,8.5-12,8.5c-4.5,8.5-13.9,43.3-13.9,43.3h-71.9c4-18.4,22.3-45.9,28.2-56.2c5.8-10.3,27.7-80.4,33.5-126.9
		c2.4-19.4,4.3-39.8,5.7-57.1v0c1.9-24.1,2.8-42.1,2.8-42.1c18.3-18.7,161.4-37.2,161.4-37.2l4.5,14.7c0,0,5.1,1.1,5.8,4.7
		c0.7,3.6-4.1,6.8-4.1,6.8C535,877.7,522.8,990.6,521.5,1005.3z"/>
	<linearGradient id="SVGID_14_" gradientUnits="userSpaceOnUse" x1="434.9" y1="878.269" x2="434.9" y2="760.3109">
		<stop  offset="0" style="stop-color:#8B8BE0"/>
		<stop  offset="1" style="stop-color:#A177B7"/>
	</linearGradient>
	<path class="st26" d="M350.9,804.7c0,0,43.3-5.3,70.5,7.6c27.3,13,24.8,35.3,24.8,35.3l-7.7,30.7l26.5-27.7l53.9-64
		c0,0-10.1,6.1-23.2,8.8c0,0,18.4-11.4,21.5-20.3l-4.5-14.7l-161.8,34.6V804.7z"/>
	<linearGradient id="SVGID_15_" gradientUnits="userSpaceOnUse" x1="589.0089" y1="712.2322" x2="589.0089" y2="669.7973">
		<stop  offset="1.598750e-02" style="stop-color:#FFC2A9"/>
		<stop  offset="1" style="stop-color:#FF9595"/>
	</linearGradient>
	<path class="st27" d="M564.6,682.7c0,0-1.8,20.1,10.3,29.5c0,0,24.8-13,37-34.1C624.1,657,564.6,682.7,564.6,682.7z"/>
	<linearGradient id="SVGID_16_" gradientUnits="userSpaceOnUse" x1="432.8141" y1="800.6581" x2="432.8141" y2="760.3196">
		<stop  offset="0" style="stop-color:#D1C8F8"/>
		<stop  offset="1" style="stop-color:#EEE5F9"/>
	</linearGradient>
	<path class="st28" d="M351.3,797.5l-0.4,3.1c0,0,33.4-8.5,49.5-9.1c16.1-0.6,33.1,12.2,67.4,5.9c34.2-6.3,47-31,47-31l-2-6.3
		L351.3,797.5z"/>
	<linearGradient id="SVGID_17_" gradientUnits="userSpaceOnUse" x1="432.2152" y1="800.6581" x2="432.2152" y2="760.3196">
		<stop  offset="0" style="stop-color:#8B8BE0"/>
		<stop  offset="1" style="stop-color:#A177B7"/>
	</linearGradient>
	<path class="st29" d="M362.5,797.9c0,0,32.5-8.2,77.6-13.3c45.1-5.1,62.1-6.7,66.4-10.1c4.2-3.4,7.1-11.7,7.1-11.7l-0.8-2.6
		l-161.4,37.2l-0.4,3.1L362.5,797.9z"/>
	<linearGradient id="SVGID_18_" gradientUnits="userSpaceOnUse" x1="661.3609" y1="632.9332" x2="661.3609" y2="619.423">
		<stop  offset="1.598750e-02" style="stop-color:#FFA58B"/>
		<stop  offset="1" style="stop-color:#FF898E"/>
	</linearGradient>
	<path class="st30" d="M660.1,619.4c0,0,6.9,5.6,7,10.4c0,4.8-11.4,2.6-11.4,2.6L660.1,619.4z"/>
	<linearGradient id="SVGID_19_" gradientUnits="userSpaceOnUse" x1="283.6652" y1="644.4292" x2="283.6652" y2="454.7895">
		<stop  offset="0" style="stop-color:#744FD8"/>
		<stop  offset="1" style="stop-color:#3996F7"/>
	</linearGradient>
	<path class="st31" d="M320,597.4l-4.9-26.8c0,0-12.5,0-30.8,17c0,0-0.4,9.2-6.7,20.7c0,0-21.1,10.2-30.9,24
		c-9.8,13.8-13.5,15.2-23.7,7.4c-2.7-2.1-4.6-9.1-5.5-18.7c-1.4-14.5-0.9-34.8,1.6-52.7c2.1-14.8,5.5-27.8,10.2-34.7
		c0,0-0.4-9.1,4-16.2c0.2,0.1,0.4,0.3,0.7,0.4c1.5,0.9,5.2,2.9,9.1,2.2c5.1-0.9,9.3-8.7,9.3-8.7s2.9,0.3,4.4,2.4
		c0,0,20.3-12.3,33.1-33c12.8-20.7,14.9-23.2,14.9-23.2s3.3-1.3,7.7-2.2c3.5-0.7,7.7-1,11.6,0C324.2,455.4,386.4,551.6,320,597.4z"
		/>
	<linearGradient id="SVGID_20_" gradientUnits="userSpaceOnUse" x1="413.5337" y1="508.1998" x2="413.5337" y2="395.0722">
		<stop  offset="1.598750e-02" style="stop-color:#FFA58B"/>
		<stop  offset="1" style="stop-color:#FF898E"/>
	</linearGradient>
	<path class="st32" d="M452.5,463.1c0,0-7.8-11.6-7.8-38.6l-60.4-29.5c0,0,3,20.8-7.2,38.8c-2.7,4.8-15.3,12.3-15.3,12.3
		s55.2,68.1,81.7,61.5c26.5-6.5,21.2-35.4,21.2-35.4S460.3,474.1,452.5,463.1z"/>
	<linearGradient id="SVGID_21_" gradientUnits="userSpaceOnUse" x1="410.769" y1="494.2966" x2="410.769" y2="441.2897">
		<stop  offset="0" style="stop-color:#D1C8F8"/>
		<stop  offset="1" style="stop-color:#EEE5F9"/>
	</linearGradient>
	<path class="st33" d="M369.3,441.3c0,0,29.9,29.8,55.7,31.5c27.6,1.8,23-21.1,23-21.1s12.5,17.5,8.9,31.3
		c-3.6,13.8-30.8,14.4-51.8,5.3c-21-9.2-41.1-44.7-41.1-44.7L369.3,441.3z"/>
	<linearGradient id="SVGID_22_" gradientUnits="userSpaceOnUse" x1="284.0574" y1="644.4292" x2="284.0574" y2="454.7895">
		<stop  offset="0" style="stop-color:#9D68C2"/>
		<stop  offset="1" style="stop-color:#CCEDFF"/>
	</linearGradient>
	<path class="st34" d="M320,597.4l-4.9-26.8c0,0-12.5,0-30.8,17c0,0-0.4,9.2-6.7,20.7c0,0-21.1,10.2-30.9,24
		c-9.8,13.8-13.5,15.2-23.7,7.4c-2.7-2.1-4.6-9.1-5.5-18.7l1.6-3.8v-48.9c2.1-14.8,5.5-27.8,10.2-34.7c0,0-0.4-9.1,4-16.2
		c0.2,0.1,0.4,0.3,0.7,0.4c17.3,11.3,23.5,44.5,24.6,69.2c0.2-6.3,4.1-30.5,7.1-30.1c3.9,0.6,10.4,45.3,10.4,45.3
		c7.7-38.3-17.2-84.5-19.2-88.2c22.8,31.5,26.7,67.7,26.7,67.7l35.4-25.9c0,0,21.3-21.5,14-58.4s-20.5-41.9-20.5-41.9
		c3.5-0.7,7.7-1,11.6,0C324.2,455.4,386.4,551.6,320,597.4z"/>
	<linearGradient id="SVGID_23_" gradientUnits="userSpaceOnUse" x1="416.9811" y1="424.5448" x2="416.9811" y2="244.9307">
		<stop  offset="1.598750e-02" style="stop-color:#FFC2A9"/>
		<stop  offset="1" style="stop-color:#FF9595"/>
	</linearGradient>
	<path class="st35" d="M468,418.3c-0.1,0.1-0.2,0.1-0.2,0.3c-0.8,1-1.7,1.8-2.7,2.3c-13.4,6.9-49.1,5.1-68.5-11.9
		c-7.4-6.5-12.9-14.2-17.3-22.1c0-0.1,0-0.1,0-0.1c-7-12.8-11-26.1-14.9-35.3c-6.2-14.9-11.4-39.8-10.1-54.2
		c1.2-13.4,3.9-24.7,22-40.2c18.2-15.5,62.8-16.4,74.2-0.9c11.3,15.5,11,50.3,13.7,58.1c2.7,7.8,12.2,17,14.9,27.4
		C481.5,351.2,478.9,404.6,468,418.3z"/>
	<linearGradient id="SVGID_24_" gradientUnits="userSpaceOnUse" x1="413.0826" y1="386.1152" x2="413.0826" y2="244.1979">
		<stop  offset="1.598750e-02" style="stop-color:#FFA58B"/>
		<stop  offset="1" style="stop-color:#FF898E"/>
	</linearGradient>
	<path class="st36" d="M468.1,321.7c0,0-0.6,9.3-7.8,9.9c-5.7,0.5-9.2-7.9-9.2-7.9s-1-22.8,1.9-34l2.7-8.9c0,0-7.8-8.1-19.4-7.1
		c-11.6,1-15.8,13.4-15.8,13.4s10.3,29.5,8.8,43.7c0,0-7.8,7.4-20.9,6.5c-15.2-1-22.8-10.1-22.8-10.1s-8.3,9.7-9.9,17.9
		c-1.9,9.8,1.4,40.9,1.4,40.9s-10.4-33.7-13.3-43.5c-2.8-9.8-8-53.5-4.9-60.9c3.1-7.4,12.1-31.7,50.8-36.5s45.9,8.2,45.9,8.2l4,19.2
		l0,9.9c0,0,2.7,25.5,3.7,29.8C464.3,316.7,468.1,321.7,468.1,321.7z"/>
	<linearGradient id="SVGID_25_" gradientUnits="userSpaceOnUse" x1="411.6259" y1="353.0357" x2="390.4244" y2="219.1746">
		<stop  offset="0" style="stop-color:#D49092"/>
		<stop  offset="0.1274" style="stop-color:#D18E92"/>
		<stop  offset="0.2036" style="stop-color:#C98991"/>
		<stop  offset="0.2664" style="stop-color:#BB7F90"/>
		<stop  offset="0.3218" style="stop-color:#A7718F"/>
		<stop  offset="0.3725" style="stop-color:#8C5F8D"/>
		<stop  offset="0.4196" style="stop-color:#6C498A"/>
		<stop  offset="0.4631" style="stop-color:#472F88"/>
		<stop  offset="0.4721" style="stop-color:#3E2987"/>
		<stop  offset="0.6068" style="stop-color:#352278"/>
		<stop  offset="0.8455" style="stop-color:#291762"/>
		<stop  offset="1" style="stop-color:#24135A"/>
	</linearGradient>
	<path class="st37" d="M459.8,283.5c0,0-1-13.1-8.5-26.1c0,0-8.3,8.7-21.7,13.4c0,0,6.2-5.8,9.1-10.2c-0.5,0.4-8.8,6.8-20.5,11.8
		c0,0,3.3-5.1,3.3-7.4c0-2.2-8.5-12-18.3-11.8c-9.8,0.2-28.6,6.7-38,24.6c-9.4,17.9,0,19.5,5.2,24.2c0,0-2.6,22.2-2,40.7
		c0.2,5.5,0.7,10.8,1.5,14.9c0.1,0.7,0.3,1.3,0.5,1.9l-13.4-12.3c0,0-0.1-8.2-5.3-19.9c-0.6-1.3-1.2-2.7-2-4.2l-0.1-0.1
		c-0.3-0.6-0.6-1.1-0.9-1.7c-3.2-6-13.1-17.2-11.7-28.6c1.3-10.7,20.9-19.9,25.6-27.1c0,0-15,4.8-22.1,11.9c0,0,1.1-6.7,6.7-10.5
		c5.5-3.8,10.2-1.4,18.3-4.7c8.1-3.2,19-30.4,31.9-40.6c13-10.3,42.7-8.3,52.3,0c2.5,2.1,4.3,4.7,5.7,7.3h0c0,0,0,0,0,0v0
		c0,0,0,0.1,0,0.1c4,7.6,4.1,15.7,4.1,15.7S465.4,267.8,459.8,283.5z"/>
	<linearGradient id="SVGID_26_" gradientUnits="userSpaceOnUse" x1="151.6778" y1="640.9035" x2="151.6778" y2="324.9047">
		<stop  offset="1.598750e-02" style="stop-color:#FFC2A9"/>
		<stop  offset="1" style="stop-color:#FF9595"/>
	</linearGradient>
	<path class="st38" d="M238.7,530.4l-9.4,3.1c0,0-42.9-25.4-56.7-87.3c0,0,10.7-18.6,11.2-25.3c0.4-6.7-6.4-20.7-8.5-38.3
		c-2.1-17.6,2.1-31,1.8-33.1c-0.3-2.1-11-2.4-14,6.3c-3,8.6,1.5,24.1,0,27.1c-1.5,3-5.1,8-5.1,8s-15.8-23.8-20-26.2
		c-4.2-2.4-10.7,9.3-13.7,9.9c-3,0.6-13.8-14.5-24.3-23.2c-10.5-8.7-30.2-27-32.2-26.6c-2,0.4-4.7,4-4.2,7.6
		c0.4,3.6,8.9,19.2,21.9,25.5c0,0,15.6,10.7,23.9,25.2c0,0-3.6,6-6,6.3c-2.5,0.2-16.5-9.2-27.7-13.6c-11.2-4.5-21.4-7.4-23.2-6.7
		c-1.8,0.7-1.1,4.7,0,7.4c1.1,2.7,11.2,10.5,22.1,13.2c0,0,16.3,6.5,21.7,13.2c0,0-0.7,6.7-2.5,7.8c-1.8,1.1-15.2-0.9-23.5-2
		c-8.3-1.1-17.8,0.2-19,1.3c-1.1,1.1-0.2,4.9,6.5,7.4c6.7,2.5,14.7,0.9,16.1,1.1c1.3,0.2,25.7,7.8,28.6,9.6s15.6,20.8,24.8,26.6
		c9.2,5.8,22.3,2.9,22.3,2.9s14.7,82.3,21.8,115.1c7.1,32.8,34.5,66.7,58.4,68.2c0,0,21.4-8.3,22.6-52.4
		C253.6,544.4,238.7,530.4,238.7,530.4z"/>
	<linearGradient id="SVGID_27_" gradientUnits="userSpaceOnUse" x1="415.7229" y1="797.5489" x2="415.7229" y2="441.2897">
		<stop  offset="0" style="stop-color:#744FD8"/>
		<stop  offset="1" style="stop-color:#3996F7"/>
	</linearGradient>
	<path class="st39" d="M496.9,621.8c0,0-8.9,46.6,2.7,97.1c0,0,7.1,4.9,8,11.2c0,0,0,0,0,0.1c0.8,6.2-0.5,12-0.5,12s3.1,3.1,5.8,7.6
		c0.5,0.8,0.8,1.8,0.9,2.9c0.4,4.6-2.2,10.5-2.2,10.5s-5.4,13.9-61.2,18.8c-55.8,4.9-99.2,15.6-99.2,15.6s-3.4-11.2,2.8-19.6
		c0,0-9.5-8.5-9.1-11.6c0.4-3.1,21-38.9,15.7-63.9c-5.4-25-25.5-45.3-36.6-94.1c0,0-7.5-2.5-7.9-6.1c-0.4-3.6,3.3-9.4,3.3-9.4
		l1.3,2.5c0,0,25.5-14.6,18.6-76.3c-6.8-61.7-14.1-65.4-26.8-63.7c0,0,10.2-9.4,12.5-9.2c2.4,0.2,3.3,4.6,3.3,4.6s8,3.3,17.4,0
		c9.4-3.3,15.7-9.5,15.7-9.5s56.6,47.9,81.4,45c28.3-3.3,8.3-34.4,8.3-34.4s17.8,3.5,27.3,5.7c9.5,2.2,13.1,0,13.1,0
		s5.7-8.4,13.1-2.8c7.5,5.6,16.7,36.6,13.7,86.6C515.4,591.5,496.9,621.8,496.9,621.8z"/>
	<path class="st40" d="M400.2,320.7c0,0-1.5,4.6-0.7,8.7s15.7,8.2,22.7,1.9C429.3,325,400.2,320.7,400.2,320.7z"/>
	<linearGradient id="SVGID_28_" gradientUnits="userSpaceOnUse" x1="597.8698" y1="691.2716" x2="597.8698" y2="518.7325">
		<stop  offset="0" style="stop-color:#1C257B"/>
		<stop  offset="1" style="stop-color:#482C83"/>
	</linearGradient>
	<path class="st41" d="M698.8,530.4C680.4,579.9,629.7,685,629.7,685c-66.7,12.8-129.3,2.1-129.3,2.1l-3.6-5.8
		c23.2-70.3,73.3-161.9,73.3-161.9c61.3-3.3,126.3,6.5,126.3,6.5L698.8,530.4z"/>
	<linearGradient id="SVGID_29_" gradientUnits="userSpaceOnUse" x1="657.1504" y1="653.6011" x2="657.1504" y2="587.1464">
		<stop  offset="0" style="stop-color:#8B8BE0"/>
		<stop  offset="1" style="stop-color:#A177B7"/>
	</linearGradient>
	<path class="st42" d="M639.7,604.8c0,0-2.8,33.2,4.9,48.8l30.5-66.5l-14.5,3.4l1.9,6.7C662.5,597.3,650.4,596.7,639.7,604.8z"/>
	<linearGradient id="SVGID_30_" gradientUnits="userSpaceOnUse" x1="659.5745" y1="622.4557" x2="659.5745" y2="587.1464">
		<stop  offset="1.598750e-02" style="stop-color:#FFC2A9"/>
		<stop  offset="1" style="stop-color:#FF9595"/>
	</linearGradient>
	<path class="st43" d="M672.9,587.1c0,0,4.8,3.9,5.8,7c1,3.4,2.4,12-7.6,14.7l-4.5,1.2c0,0,3.3,1.5,3.9,3.7c0.6,2.2-3.1,7.1-9.1,8.3
		c-6,1.2-15.9-1.2-18.9-3.9c-3-2.7-1-6.4,3.4-7.4c0,0-6.6-1.5-6.3-6c0.3-4.6,15.3-9.5,31.3-8L672.9,587.1z"/>
	<path class="st40" d="M452.5,325.1c0,0,2.4,3.8,7.7,2.7s4.8-10.4,3.9-13.6C463.2,311,452.6,322.1,452.5,325.1z"/>
	<linearGradient id="SVGID_31_" gradientUnits="userSpaceOnUse" x1="676.5219" y1="591.2413" x2="676.5219" y2="564.4952">
		<stop  offset="1.598750e-02" style="stop-color:#FFC2A9"/>
		<stop  offset="1" style="stop-color:#FF9595"/>
	</linearGradient>
	<path class="st44" d="M685,564.5c0,0,8,7.5,8,12.6c0,5.1-11.8,11.6-32.2,14.1c0,0-1.9-3.9,0-8.2c1.9-4.2,12.1-10.2,20.4-11.5
		L685,564.5z"/>
	<linearGradient id="SVGID_32_" gradientUnits="userSpaceOnUse" x1="657.9888" y1="636.7454" x2="657.9888" y2="625.0778">
		<stop  offset="1.598750e-02" style="stop-color:#FFC2A9"/>
		<stop  offset="1" style="stop-color:#FF9595"/>
	</linearGradient>
	<path class="st45" d="M661.6,625.1c0,0-13.8-1.3-12.6,11.3c0,0,7.7,1.1,13.4-0.6c5.7-1.6,4.9-6,4.5-7.4
		C666.4,626.9,665.9,625.7,661.6,625.1z"/>
	<linearGradient id="SVGID_33_" gradientUnits="userSpaceOnUse" x1="402.0749" y1="311.5104" x2="402.0749" y2="282.5471">
		<stop  offset="0" style="stop-color:#1C257B"/>
		<stop  offset="1" style="stop-color:#482C83"/>
	</linearGradient>
	<path class="st46" d="M385,311.5c0,0,1.1-7.2,8.2-14.5c5.1-5.2,14.8-10.5,21.7-13.2c0,0,1,2.2,1,6.4c0,0,1.1-3.9,2.1-7.7
		c0,0,1.5,3.7,1.1,11c0,0-6,2.1-15.9,4.8C390.9,301.7,385,311.5,385,311.5z"/>
	<path class="st47" d="M451.1,320.7c0,0,0-18.8,5.5-19.9c4.6-0.9,6.7,9.8,6.7,9.8L451.1,320.7z"/>
	<path class="st47" d="M399.5,326c0,0-0.2-13.2,10.6-17.9s14.6,10.5,14.6,10.5L399.5,326z"/>
	<linearGradient id="SVGID_34_" gradientUnits="userSpaceOnUse" x1="412.7192" y1="333.7046" x2="412.7192" y2="310.5631">
		<stop  offset="0" style="stop-color:#D0C7F8"/>
		<stop  offset="1" style="stop-color:#FFFFFF"/>
	</linearGradient>
	<path class="st48" d="M425.9,326c-0.3,2.8-4,7.7-12.1,7.7c-7.1,0-14.3-3.6-14.3-7.7c0-1.4,0.4-3,1-4.6c1.4-3.5,4.3-6.9,7.9-9
		c2.4-1.4,5-2.1,7.8-1.9C424.8,311.5,426.2,323.3,425.9,326z"/>
	<linearGradient id="SVGID_35_" gradientUnits="userSpaceOnUse" x1="457.7021" y1="327.3636" x2="457.7021" y2="304.2202">
		<stop  offset="0" style="stop-color:#D0C7F8"/>
		<stop  offset="1" style="stop-color:#FFFFFF"/>
	</linearGradient>
	<path class="st49" d="M464.3,316.7c0.1,6.1-2.5,10.8-7.2,10.7c-2,0-3.2-0.6-4-1.5c-0.7-0.8-1.1-1.9-1.5-3.3
		c-0.2-0.6-0.3-1.2-0.5-1.9c0,0,0.5-5.8,2-10.5c0.4-1,0.7-2,1.2-2.8c0.8-1.5,1.7-2.6,2.8-3C460.7,303.1,464.2,310.5,464.3,316.7z"/>
	<linearGradient id="SVGID_36_" gradientUnits="userSpaceOnUse" x1="86.9858" y1="400.1954" x2="124.3319" y2="400.1954">
		<stop  offset="0" style="stop-color:#CF6074"/>
		<stop  offset="1" style="stop-color:#FF817F"/>
	</linearGradient>
	<path class="st50" d="M124.3,374.7c0,0-6.7,9.1-14.8,23.7c-6.6,11.9-7.1,29.8-7.1,29.8s-9.4-4.2-14.5-5.4
		c-5.1-1.1,12.5-28.4,12.5-28.4l20.1-22.1L124.3,374.7z"/>
	<radialGradient id="SVGID_37_" cx="410.1273" cy="325.4359" r="9.1057" gradientUnits="userSpaceOnUse">
		<stop  offset="0" style="stop-color:#CF95FF"/>
		<stop  offset="1" style="stop-color:#8161FF"/>
	</radialGradient>
	<path class="st51" d="M419.1,321.7c0,5.1-4.1,9.3-9.3,9.3c-5.1,0-9.3-4.1-9.3-9.3c0-0.1,0-0.2,0-0.2c1.4-3.5,4.3-6.9,7.9-9
		c0.4-0.1,0.9-0.1,1.4-0.1C415,312.4,419.1,316.5,419.1,321.7z"/>
	<linearGradient id="SVGID_38_" gradientUnits="userSpaceOnUse" x1="409.8407" y1="328.1172" x2="409.8407" y2="315.2303">
		<stop  offset="0" style="stop-color:#8642A0"/>
		<stop  offset="1" style="stop-color:#4E37B7"/>
	</linearGradient>
	<path class="st52" d="M416.3,321.7c0,3.6-2.9,6.4-6.4,6.4c-3.6,0-6.4-2.9-6.4-6.4s2.9-6.4,6.4-6.4
		C413.4,315.2,416.3,318.1,416.3,321.7z"/>
	<radialGradient id="SVGID_39_" cx="455.839" cy="320.3972" r="6.1059" gradientUnits="userSpaceOnUse">
		<stop  offset="0" style="stop-color:#CF95FF"/>
		<stop  offset="1" style="stop-color:#8161FF"/>
	</radialGradient>
	<path class="st53" d="M460.3,316.6c0,5.1-2.8,9.3-6.3,9.3c-0.3,0-0.6,0-0.9-0.1c-0.7-0.8-1.1-1.9-1.5-3.3c-0.2-0.6-0.3-1.2-0.5-1.9
		c0,0,0.5-5.8,2-10.5c0.4-1,0.7-2,1.2-2.8C457.6,307.6,460.3,311.7,460.3,316.6z"/>
	<linearGradient id="SVGID_40_" gradientUnits="userSpaceOnUse" x1="74.521" y1="370.0742" x2="105.7628" y2="370.0742">
		<stop  offset="0" style="stop-color:#CF6074"/>
		<stop  offset="1" style="stop-color:#FF817F"/>
	</linearGradient>
	<path class="st54" d="M74.5,389.7c0,0,6.3,2.2,9,1.6c2.8-0.7,4.2-6.7,4.2-7.5c0-0.8-8-6.1-8-6.1l10.1,5.1l9.9-11.7
		c0,0-5.6-7.2-13.5-12.4c0,0,8.1,4.9,10.6,3.1c2.5-1.8,3.5-5.1,3.5-6.8c0-1.7-8.3-10.2-8.3-10.2s12.5,10.2,13.5,11.9
		c1,1.7-5.9,26.5-5.9,26.5l-13.5,12.2C86.3,395.4,78.2,391.6,74.5,389.7z"/>
	<linearGradient id="SVGID_41_" gradientUnits="userSpaceOnUse" x1="454.3875" y1="323.071" x2="454.3875" y2="310.174">
		<stop  offset="0" style="stop-color:#8642A0"/>
		<stop  offset="1" style="stop-color:#4E37B7"/>
	</linearGradient>
	<path class="st55" d="M457.7,316.6c0,3.6-2,6.4-4.4,6.4c-0.6,0-1.2-0.2-1.7-0.5c-0.2-0.6-0.3-1.2-0.5-1.9c0,0,0.5-5.8,2-10.5h0.1
		C455.7,310.2,457.7,313.1,457.7,316.6z"/>
	<path class="st40" d="M453.4,283.7c0,0-5,26.5-2.2,40c0,0-1.6-20.4,4.6-34.9L453.4,283.7z"/>
	<linearGradient id="SVGID_42_" gradientUnits="userSpaceOnUse" x1="457.065" y1="293.6411" x2="457.065" y2="273.7078">
		<stop  offset="0" style="stop-color:#1C257B"/>
		<stop  offset="1" style="stop-color:#482C83"/>
	</linearGradient>
	<path class="st56" d="M452.4,293.6c0,0,0.6-8.9,1.9-16.5l0.9,3.1l2.6-6.5c0,0,6.7,4.1,2.6,12.8C460.4,286.5,456.1,286,452.4,293.6z
		"/>
	<path class="st40" d="M426.4,358.5c0,0,0.6,6.1,11.7,9.5c11.2,3.4,20.7,1.3,24.2-2.6c0,0-3.6,4.3-10.2,5.5
		c-6.6,1.2-16.5-0.4-21.1-3.9c-5.1-3.9-6.2-7.4-6.2-7.4L426.4,358.5z"/>
	<path class="st57" d="M421.6,361.1c0,0,5.4-2.8,10.3-3.6c0,0-5.1-1-7.5-0.4C421.9,357.7,421.6,361.1,421.6,361.1z"/>
	<g>
		<linearGradient id="SVGID_43_" gradientUnits="userSpaceOnUse" x1="445.2852" y1="354.9843" x2="450.7701" y2="338.2089">
			<stop  offset="0" style="stop-color:#FF8883"/>
			<stop  offset="1" style="stop-color:#E8868D"/>
		</linearGradient>
		<path class="st58" d="M433,344.6c0,0,7.7,0,14.9,0.4c7.1,0.4,13.7-0.4,16.4-2.4c0,0,0.4,8.3-8.5,13.4c0,0-3.6,1.3-7.3,0
			c0,0-3.4-3.7-9.8-4.9C438.7,351.1,432.7,349.3,433,344.6z"/>
		<linearGradient id="SVGID_44_" gradientUnits="userSpaceOnUse" x1="448.6636" y1="347.5471" x2="448.6636" y2="330.879">
			<stop  offset="0" style="stop-color:#FF8883"/>
			<stop  offset="1" style="stop-color:#FFB1A4"/>
		</linearGradient>
		<path class="st59" d="M447.2,331c-9.2,1.3-14.1,13.6-14.1,13.6l17.4,3c7.9-0.4,13.9-4.9,13.9-4.9S456.4,329.7,447.2,331z"/>
		<path class="st60" d="M438.1,350.9c0,0,0.9-0.8,3.7-0.6c2.8,0.2,5.6,4.8,5.6,4.8S444.5,352.3,438.1,350.9z"/>
	</g>
	<g>
		
			<linearGradient id="SVGID_45_" gradientUnits="userSpaceOnUse" x1="147.1755" y1="753.4039" x2="147.1755" y2="624.6397" gradientTransform="matrix(0.8807 0.4736 -0.4736 0.8807 293.6513 -295.39)">
			<stop  offset="0" style="stop-color:#1C257B"/>
			<stop  offset="1" style="stop-color:#482C83"/>
		</linearGradient>
		<path class="st61" d="M119.2,328.1l-29,53.9c0,0-7.5,31.2-21.3,43.5c0,0-1.6,6,2.4,15l61-113.4C132.3,327,125,323.9,119.2,328.1z"
			/>
		
			<linearGradient id="SVGID_46_" gradientUnits="userSpaceOnUse" x1="1402.8699" y1="753.5821" x2="1402.8699" y2="624.8179" gradientTransform="matrix(-0.8807 -0.4736 -0.4736 0.8807 1668.5774 443.7798)">
			<stop  offset="0" style="stop-color:#1C257B"/>
			<stop  offset="1" style="stop-color:#482C83"/>
		</linearGradient>
		<path class="st62" d="M138.7,338.5l-29,53.9c0,0-21.9,23.5-24.5,41.8c0,0-4.1,4.6-13.8,6.3l61-113.4
			C132.3,327,138.9,331.4,138.7,338.5z"/>
		
			<linearGradient id="SVGID_47_" gradientUnits="userSpaceOnUse" x1="152.6924" y1="757.0398" x2="152.6924" y2="751.3892" gradientTransform="matrix(0.8807 0.4736 -0.4736 0.8807 293.6513 -295.39)">
			<stop  offset="0" style="stop-color:#1C257B"/>
			<stop  offset="1" style="stop-color:#482C83"/>
		</linearGradient>
		<path class="st63" d="M70.2,437.5l4.2,2.3c0,0-3.6,4.5-4.8,3.8C68.4,443,70.2,437.5,70.2,437.5z"/>
		
			<linearGradient id="SVGID_48_" gradientUnits="userSpaceOnUse" x1="152.6921" y1="741.3433" x2="152.6921" y2="692.9235" gradientTransform="matrix(0.8807 0.4736 -0.4736 0.8807 293.6513 -295.39)">
			<stop  offset="0" style="stop-color:#6A4FAC"/>
			<stop  offset="1" style="stop-color:#513689"/>
		</linearGradient>
		<path class="st64" d="M68.9,425.5l16.2,8.7c0,0,1.9-15.7,24.5-41.8L90.2,382C90.2,382,85.7,406.1,68.9,425.5z"/>
	</g>
	<linearGradient id="SVGID_49_" gradientUnits="userSpaceOnUse" x1="118.4569" y1="375.201" x2="118.4569" y2="312.6871">
		<stop  offset="1.598750e-02" style="stop-color:#FFA58B"/>
		<stop  offset="1" style="stop-color:#FF898E"/>
	</linearGradient>
	<path class="st65" d="M142.8,369.8c0,0-9.5-11.8-17.9-24.9c-8.3-13.1-23.4-34.2-28.5-32c-5.1,2.2-0.7,15.6,4,24.1
		c4.7,8.5,10.7,11.6,13.4,16.1c2.7,4.5,10.5,21.6,10.5,21.6S136.5,377.6,142.8,369.8z"/>
	<linearGradient id="SVGID_50_" gradientUnits="userSpaceOnUse" x1="590.0367" y1="709.595" x2="590.0367" y2="689.7249">
		<stop  offset="0" style="stop-color:#1C257B"/>
		<stop  offset="1" style="stop-color:#482C83"/>
	</linearGradient>
	<path class="st66" d="M587.2,690.4c0,0-3.8,18.1-2.1,19.2c1.6,1.1,10.4-19.8,10.4-19.8L587.2,690.4z"/>
	<g>
		<linearGradient id="SVGID_51_" gradientUnits="userSpaceOnUse" x1="611.029" y1="1079.8811" x2="611.029" y2="709.5198">
			<stop  offset="0" style="stop-color:#1C257B"/>
			<stop  offset="1" style="stop-color:#482C83"/>
		</linearGradient>
		<path class="st67" d="M532.3,1079.9l-1.2-0.1c0.1-0.6,7.1-62.3,82.2-84.7c41.1-12.2,68.4-40.7,74.9-78.1
			c6.5-37-9.1-75.5-39.7-98.1c-59.9-44.2-64-108.7-64-109.4l1.2-0.1c0,0.6,4.2,64.6,63.6,108.5c31,22.9,46.7,61.8,40.2,99.2
			c-6.6,37.8-34.2,66.6-75.7,79C539.4,1018.4,532.4,1079.3,532.3,1079.9z"/>
	</g>
	
		<linearGradient id="SVGID_52_" gradientUnits="userSpaceOnUse" x1="1425.4977" y1="310.6052" x2="1425.4977" y2="259.814" gradientTransform="matrix(-0.983 0.1833 0.1833 0.983 1708.2549 -171.0738)">
		<stop  offset="1.598750e-02" style="stop-color:#FFAC8B"/>
		<stop  offset="1" style="stop-color:#FF9595"/>
	</linearGradient>
	<path class="st68" d="M369.1,355.2c0,0-14.8-14.7-23.6-6.4c-10.5,9.9-3.1,31.6,8.5,41c10.1,8.2,20.9,6,23.1-3.7
		C377.2,386.1,380.3,364.2,369.1,355.2z"/>
	<path class="st40" d="M368.7,369.1c0,0-8.7-10.2-15.9-7.6c-7.2,2.6-5.1,14-5.1,14s0.1-8.4,4.7-9.6c4.6-1.3,7.5,4.8,7.5,4.8
		s-2.5,0.2-2.4,7.3c0.1,7,8.3,13.6,11.6,8.6C372.4,381.6,368.7,369.1,368.7,369.1z"/>
	<path class="st11" d="M420.5,322.2c0,0.9-0.7,1.6-1.6,1.6c-0.9,0-1.6-0.7-1.6-1.6c0-0.9,0.7-1.6,1.6-1.6
		C419.8,320.7,420.5,321.4,420.5,322.2z"/>
	<path class="st11" d="M462.3,316.8c0,0.9-0.7,1.6-1.6,1.6c-0.9,0-1.6-0.7-1.6-1.6c0-0.9,0.7-1.6,1.6-1.6
		C461.6,315.2,462.3,315.9,462.3,316.8z"/>
	<linearGradient id="SVGID_53_" gradientUnits="userSpaceOnUse" x1="384.3686" y1="423.481" x2="447.9989" y2="423.481">
		<stop  offset="0" style="stop-color:#CF6074"/>
		<stop  offset="1" style="stop-color:#FF817F"/>
	</linearGradient>
	<path class="st69" d="M384.4,410.6c0,0,23.2,45.1,63.6,41.1c0,0-3.6-15.8-3.2-27.1c0,0-18.8-0.5-32.8-6.3
		c-15.7-6.5-27.6-23.2-27.6-23.2L384.4,410.6z"/>
	<linearGradient id="SVGID_54_" gradientUnits="userSpaceOnUse" x1="129.8384" y1="436.0081" x2="129.8384" y2="386.7157">
		<stop  offset="1.598750e-02" style="stop-color:#FF997C"/>
		<stop  offset="1" style="stop-color:#FF898E"/>
	</linearGradient>
	<path class="st70" d="M142.8,435.4c-11,3.1-31.3-6.5-33.1-15.8c-1.8-9.3,12-34.4,24.3-32.8c12.3,1.6,18.2,10.6,15.6,18.8
		C146.6,414.9,149,433.6,142.8,435.4z"/>
	<linearGradient id="SVGID_55_" gradientUnits="userSpaceOnUse" x1="146.476" y1="407.412" x2="157.9861" y2="407.412">
		<stop  offset="0" style="stop-color:#CF6074"/>
		<stop  offset="1" style="stop-color:#FF817F"/>
	</linearGradient>
	<path class="st71" d="M158,391c0,0-12.2,20.3-11.1,37.1c0,0-3.2-24.3,8.2-41.4L158,391z"/>
	<linearGradient id="SVGID_56_" gradientUnits="userSpaceOnUse" x1="157.6138" y1="472.3618" x2="157.6138" y2="452.0088">
		<stop  offset="0" style="stop-color:#CF6074"/>
		<stop  offset="1" style="stop-color:#FF817F"/>
	</linearGradient>
	<path class="st72" d="M149.6,457.6c0,0,11.4-2.2,16.1-5.6l-13.4,20.4C152.2,472.4,150.4,464.2,149.6,457.6z"/>
	<linearGradient id="SVGID_57_" gradientUnits="userSpaceOnUse" x1="241.2329" y1="638.7797" x2="241.2329" y2="530.4108">
		<stop  offset="0" style="stop-color:#CF6074"/>
		<stop  offset="1" style="stop-color:#FF817F"/>
	</linearGradient>
	<path class="st73" d="M229.3,533.5c0,0,8,9.4,13.3,46.3c5.3,36.9-9.3,58.9-9.3,58.9s14.8-2.8,19.2-46c4.4-43.2-13.8-62.4-13.8-62.4
		L229.3,533.5z"/>
	<linearGradient id="SVGID_58_" gradientUnits="userSpaceOnUse" x1="413.2204" y1="797.5489" x2="413.2204" y2="446.2139">
		<stop  offset="0" style="stop-color:#8B8BE0"/>
		<stop  offset="1" style="stop-color:#A177B7"/>
	</linearGradient>
	<path class="st74" d="M511.7,763.1c0,0-5.4,13.9-61.2,18.8c-55.8,4.9-99.2,15.6-99.2,15.6s-3.4-11.2,2.8-19.6c0,0-9.5-8.5-9.1-11.6
		c0.4-3.1,21-38.9,15.7-63.9c-5.4-25-25.5-45.3-36.6-94.1c0,0-7.5-2.5-7.9-6.1c-0.4-3.6,3.3-9.4,3.3-9.4l1.3,2.5
		c0,0,25.5-14.6,18.6-76.3c-6.8-61.7-14.1-65.4-26.8-63.7c0,0,10.2-9.4,12.5-9.2c0,0,15.1,11.4,25.6,72.5
		c8.7,51.2,23.3,83.2,23.3,83.2s28.6,10.7,62.2,9.6c33.5-1.1,30.1-5.3,59.6-3.2c0,0-63.6,6.8-87.7,11.2s-46.1,13.5-46.1,13.5
		s20.4,47.6,17.1,79.3c-2.4,22.7-10.7,41.7-10.7,41.7s4.2,1.7,45.2-0.1c41-1.8,94.2-23.7,94.2-23.7s0,0,0,0.1
		c0.2,0.9,1.2,7.2-0.5,12c0,0-41,8.9-78.8,16.1S368.3,777,368.3,777s7.7,4.3,66.6-2.1c58.9-6.4,76-10.3,79-22.3l0,0
		C514.3,757.3,511.7,763.1,511.7,763.1z"/>
	<linearGradient id="SVGID_59_" gradientUnits="userSpaceOnUse" x1="394.3599" y1="624.8965" x2="394.3599" y2="609.2825">
		<stop  offset="0" style="stop-color:#8B8BE0"/>
		<stop  offset="1" style="stop-color:#A177B7"/>
	</linearGradient>
	<path class="st75" d="M354.1,621.9c0,0,7-9.3,23.1-12c16.1-2.6,41.7,3.6,57.5,3.6c0,0-44,8.3-60.7,10.7
		C357.2,626.6,354.1,621.9,354.1,621.9z"/>
	<linearGradient id="SVGID_60_" gradientUnits="userSpaceOnUse" x1="501.1584" y1="545.8978" x2="501.1584" y2="453.3188">
		<stop  offset="0" style="stop-color:#8B8BE0"/>
		<stop  offset="1" style="stop-color:#A177B7"/>
	</linearGradient>
	<path class="st76" d="M491.5,457.6c0,0,16.1,28.2,19.1,88.3c0,0,2.7-47.6-13.7-92.6C496.9,453.3,494.3,454,491.5,457.6z"/>
	<linearGradient id="SVGID_61_" gradientUnits="userSpaceOnUse" x1="467.7665" y1="568.8303" x2="467.7665" y2="482.9041">
		<stop  offset="0" style="stop-color:#8B8BE0"/>
		<stop  offset="1" style="stop-color:#A177B7"/>
	</linearGradient>
	<path class="st77" d="M489.3,482.9c0,0-4.9,35.3-43.1,85.9c0,0,25-20.3,33.8-39.9C489.3,508.1,489.3,482.9,489.3,482.9z"/>
	<linearGradient id="SVGID_62_" gradientUnits="userSpaceOnUse" x1="440.1249" y1="733.3536" x2="440.1249" y2="709.595">
		<stop  offset="0" style="stop-color:#8B8BE0"/>
		<stop  offset="1" style="stop-color:#A177B7"/>
	</linearGradient>
	<path class="st78" d="M394.4,709.6c0,0,11.1,18,35.2,22.4c24.1,4.5,56.3-3.9,56.3-3.9s-31,5.4-54.2-2.4
		C408.5,718,394.4,709.6,394.4,709.6z"/>
	<linearGradient id="SVGID_63_" gradientUnits="userSpaceOnUse" x1="327.614" y1="595.3464" x2="327.614" y2="549.6094">
		<stop  offset="0" style="stop-color:#9D68C2"/>
		<stop  offset="1" style="stop-color:#90AEFF"/>
	</linearGradient>
	<path class="st79" d="M315.1,570.6c0,0,18.1-7.5,25-21c0,0-1.1,33.5-19.4,45.7C320.7,595.3,316.2,581.8,315.1,570.6z"/>
	<linearGradient id="SVGID_64_" gradientUnits="userSpaceOnUse" x1="465.0119" y1="878.269" x2="465.0119" y2="808.5024">
		<stop  offset="0" style="stop-color:#8B8BE0"/>
		<stop  offset="1" style="stop-color:#A177B7"/>
	</linearGradient>
	<path class="st80" d="M438.5,878.3l9.5-34.8c0,0,16.6-24,43.4-34.9L465,849.1L438.5,878.3z"/>
	<linearGradient id="SVGID_65_" gradientUnits="userSpaceOnUse" x1="330.0505" y1="1079.8212" x2="330.0505" y2="839.6586">
		<stop  offset="0" style="stop-color:#8B8BE0"/>
		<stop  offset="1" style="stop-color:#A177B7"/>
	</linearGradient>
	<path class="st81" d="M379,1028.1c-4,4.5-12,8.5-12,8.5c-4.5,8.5-13.9,43.3-13.9,43.3h-71.9c4-18.4,22.3-45.9,28.2-56.2
		c5.8-10.3,27.7-80.4,33.5-126.9c2.4-19.4,4.3-39.8,5.7-57.1c0.1,1.3,2.5,14.8-4.5,80.4c-7.1,67.3-12,96.4-11.4,102.3
		C333.1,1028.4,362.3,1042.7,379,1028.1z"/>
	<linearGradient id="SVGID_66_" gradientUnits="userSpaceOnUse" x1="478.7906" y1="1079.8212" x2="478.7906" y2="878.892">
		<stop  offset="0" style="stop-color:#8B8BE0"/>
		<stop  offset="1" style="stop-color:#A177B7"/>
	</linearGradient>
	<path class="st82" d="M518.9,1018.9c-1.9,6.6-4.3,11.5-5.6,17.2c-2.1,8.9-4.5,43.7-4.5,43.7h-62.6c2.4-12.9,5.4-22.8,8.9-55
		c3.4-30.8-15-136.8-16.6-145.9c2.1,9.8,25.2,119.7,30.4,129.1C480.4,1028.2,511.1,1035.1,518.9,1018.9z"/>
	<linearGradient id="SVGID_67_" gradientUnits="userSpaceOnUse" x1="355.3723" y1="1048.9783" x2="355.3723" y2="1024.0889">
		<stop  offset="0" style="stop-color:#8B8BE0"/>
		<stop  offset="1" style="stop-color:#A177B7"/>
	</linearGradient>
	<path class="st83" d="M333.3,1024.1c0,0,4.9,21.7,28.9,24.9l4.7-12.4c0,0,9.1-5.5,10.6-7c0,0-6.7,5.1-22.1,2.7
		C340,1029.9,333.3,1024.1,333.3,1024.1z"/>
	<linearGradient id="SVGID_68_" gradientUnits="userSpaceOnUse" x1="499.8836" y1="1036.1082" x2="499.8836" y2="1018.9435">
		<stop  offset="0" style="stop-color:#8B8BE0"/>
		<stop  offset="1" style="stop-color:#A177B7"/>
	</linearGradient>
	<path class="st84" d="M480.8,1022.1c0,0,10.8,12.2,32.4,14c0,0,4-10.5,5.6-17.2c0,0-9,8.6-19,8.6
		C489.3,1027.5,480.8,1022.1,480.8,1022.1z"/>
	<linearGradient id="SVGID_69_" gradientUnits="userSpaceOnUse" x1="597.8698" y1="687.0637" x2="597.8698" y2="518.7325">
		<stop  offset="0" style="stop-color:#8642A0"/>
		<stop  offset="1" style="stop-color:#6456C0"/>
	</linearGradient>
	<path class="st85" d="M698.8,530.4c-90.3-11.6-126.9-6.2-126.9-6.2c-32.3,55.3-71.4,162.9-71.4,162.9l-3.6-5.8
		c23.2-70.3,73.3-161.9,73.3-161.9c61.3-3.3,126.3,6.5,126.3,6.5L698.8,530.4z"/>
	<linearGradient id="SVGID_70_" gradientUnits="userSpaceOnUse" x1="645.9701" y1="610.9724" x2="668.198" y2="610.9724">
		<stop  offset="0" style="stop-color:#CF6074"/>
		<stop  offset="1" style="stop-color:#FF817F"/>
	</linearGradient>
	<path class="st86" d="M666.7,610.1c0,0-11.8,1.3-20.7,0.7c0,0,12.3,2.2,22.2,0.2L666.7,610.1z"/>
	<linearGradient id="SVGID_71_" gradientUnits="userSpaceOnUse" x1="361.7744" y1="462.8397" x2="361.7744" y2="462.2974">
		<stop  offset="0" style="stop-color:#9D68C2"/>
		<stop  offset="1" style="stop-color:#CCEDFF"/>
	</linearGradient>
	<path class="st87" d="M361.7,462.3c0,0.2,0.1,0.4,0.2,0.5C361.8,462.6,361.7,462.4,361.7,462.3z"/>
	<linearGradient id="SVGID_72_" gradientUnits="userSpaceOnUse" x1="437.9377" y1="755.0701" x2="437.9377" y2="718.9408">
		<stop  offset="0" style="stop-color:#B9ACF4"/>
		<stop  offset="1" style="stop-color:#E1D1F5"/>
	</linearGradient>
	<path class="st88" d="M368.2,753.9c0,0,21.8,0.7,66.7-7.3c47.7-8.5,64.7-27.7,64.7-27.7s6.9,4.5,8,11.2c0,0-40.5,17.1-72.7,21.3
		C402.6,755.6,374.8,755.9,368.2,753.9z"/>
	<linearGradient id="SVGID_73_" gradientUnits="userSpaceOnUse" x1="464.1376" y1="776.8884" x2="464.1376" y2="749.7568">
		<stop  offset="0" style="stop-color:#B9ACF4"/>
		<stop  offset="1" style="stop-color:#E1D1F5"/>
	</linearGradient>
	<path class="st89" d="M414.7,776.9c0,0,27-4.3,57.2-11.7c30.2-7.4,41.1-15.4,41.1-15.4s5,9.7-14.8,15.3
		C478.4,770.6,414.7,776.9,414.7,776.9z"/>
	<linearGradient id="SVGID_74_" gradientUnits="userSpaceOnUse" x1="565.5919" y1="691.278" x2="565.5919" y2="592.2106">
		<stop  offset="0" style="stop-color:#B9ACF4"/>
		<stop  offset="1" style="stop-color:#E1D1F5"/>
	</linearGradient>
	<path class="st90" d="M537.1,595.5l97.2,80l-4.6,9.5c0,0-61.4,12.6-129.3,2.1l-3.6-5.8c0,0,21.9-58.6,36.6-89.1L537.1,595.5z"/>
	<linearGradient id="SVGID_75_" gradientUnits="userSpaceOnUse" x1="352.2502" y1="964.0422" x2="352.2502" y2="863.9734">
		<stop  offset="0" style="stop-color:#8B8BE0"/>
		<stop  offset="1" style="stop-color:#A177B7"/>
	</linearGradient>
	<path class="st91" d="M350.9,864c0,0-6.1,48.2,4.5,100.1L350.9,864z"/>
	<linearGradient id="SVGID_76_" gradientUnits="userSpaceOnUse" x1="459.7542" y1="968.6584" x2="459.7542" y2="847.5933">
		<stop  offset="0" style="stop-color:#8B8BE0"/>
		<stop  offset="1" style="stop-color:#A177B7"/>
	</linearGradient>
	<path class="st92" d="M450.9,875.3c0,0,16.5,65.5,30,93.4c0,0-26.4-36.2-36-60.6l-6.2-29.2l7.6-31.3L450.9,875.3z"/>
	<linearGradient id="SVGID_77_" gradientUnits="userSpaceOnUse" x1="450.8068" y1="486.2535" x2="450.8068" y2="451.636">
		<stop  offset="0" style="stop-color:#3D2CB0"/>
		<stop  offset="1" style="stop-color:#0355C7"/>
	</linearGradient>
	<path class="st93" d="M451.1,451.9l-3.1-0.3c0,0,6.4,10.3,7.8,18.8c1.3,8.5-4.3,14-13,15.8c0,0,14.1-0.8,15.8-10.5
		S451.1,451.9,451.1,451.9z"/>
	<linearGradient id="SVGID_78_" gradientUnits="userSpaceOnUse" x1="360.9828" y1="312.2677" x2="353.8243" y2="267.0706">
		<stop  offset="0" style="stop-color:#5E3187"/>
		<stop  offset="0.3777" style="stop-color:#422271"/>
		<stop  offset="0.7555" style="stop-color:#2C1760"/>
		<stop  offset="1" style="stop-color:#24135A"/>
	</linearGradient>
	<path class="st94" d="M351,276.1c0,0-15,8.6-15.4,20c-0.4,11.4,9.2,18.7,9.2,18.7l1.3-6.2c0,0,7.4,1.2,14.3-1.3
		c6.9-2.5,10.1-5.4,10.1-5.4s-8.8-5.2-9-13.8c-0.2-8.6,15-24.1,15-24.1l-13.6,1.6C362.9,265.6,354.2,272.6,351,276.1z"/>
	<linearGradient id="SVGID_79_" gradientUnits="userSpaceOnUse" x1="430.1062" y1="265.0463" x2="430.1062" y2="224.2481">
		<stop  offset="0" style="stop-color:#8B8BE0"/>
		<stop  offset="1" style="stop-color:#A177B7"/>
	</linearGradient>
	<path class="st95" d="M421.6,265c0,0,13.7-14.9,16.5-25.3c2.8-10.4-8.2-15.5-8.2-15.5s3.9,4.3,3.1,14.3
		C432.3,248.5,421.6,265,421.6,265z"/>
	<linearGradient id="SVGID_80_" gradientUnits="userSpaceOnUse" x1="400.4404" y1="265.0463" x2="400.4404" y2="237.3497">
		<stop  offset="0" style="stop-color:#8B8BE0"/>
		<stop  offset="1" style="stop-color:#A177B7"/>
	</linearGradient>
	<path class="st96" d="M379,262.1c0,0,14-24.5,27.1-24.8c13.1-0.3,16.9,23.8,15.6,27.7c0,0-0.4-9.6-16.7-10
		C388.7,254.5,379,262.1,379,262.1z"/>
	<linearGradient id="SVGID_81_" gradientUnits="userSpaceOnUse" x1="456.6773" y1="262.825" x2="456.6773" y2="244.9345">
		<stop  offset="0" style="stop-color:#8B8BE0"/>
		<stop  offset="1" style="stop-color:#A177B7"/>
	</linearGradient>
	<path class="st97" d="M451.3,257.5c0,0,7.2-9.2,8.5-12.5c0,0,1.8,8.1,2.1,13.9c0,0,1,2.7-7.9,4L451.3,257.5z"/>
	<linearGradient id="SVGID_82_" gradientUnits="userSpaceOnUse" x1="403.588" y1="350.6214" x2="403.588" y2="303.3241">
		<stop  offset="0" style="stop-color:#F2C7CC"/>
		<stop  offset="1" style="stop-color:#A177B7"/>
	</linearGradient>
	<path class="st98" d="M357.1,347.3l23.9-19.9c0,0,0.9,18.9,17.4,22.3c16.5,3.4,28.9-2.1,33.4-12.5c4.5-10.4,5.4-24.9,5.4-24.9
		s1.1-1.7,6.4-1.6c5.3,0.1,7.5,2.1,7.5,2.1v-9c0,0-11-1.7-15.7,2.2c0,0,1.6,29-8.7,36.2c-10.3,7.2-19.1,8.1-30.2,2.5
		c-8.6-4.3-12.1-18.2-9.5-26.1l-8,1.6l-22.9,26.9L357.1,347.3z"/>
	<g>
		<linearGradient id="SVGID_83_" gradientUnits="userSpaceOnUse" x1="408.4843" y1="345.7712" x2="413.9896" y2="299.9772">
			<stop  offset="0" style="stop-color:#1C257B"/>
			<stop  offset="1" style="stop-color:#482C83"/>
		</linearGradient>
		<path class="st99" d="M433.5,303.9c-4.5-6-36-0.3-44.8,9.4c-8.8,9.8,2.5,29.1,16.5,31.9c16.4,3.2,24-2.1,28.6-9
			C438.6,328.9,437.6,309.4,433.5,303.9z M433.3,332.9c-3.7,10.2-17.2,13.6-28.6,10.6c-7-1.9-19-12.8-16.3-25.1
			c2.7-12.3,39.1-17.6,43.5-12.9C435.4,309.3,437,322.7,433.3,332.9z"/>
		<linearGradient id="SVGID_84_" gradientUnits="userSpaceOnUse" x1="409.3324" y1="345.674" x2="414.8377" y2="299.88">
			<stop  offset="0" style="stop-color:#1C257B"/>
			<stop  offset="1" style="stop-color:#65459C"/>
		</linearGradient>
		<path class="st100" d="M434.4,303.8c-4.5-6-36-0.3-44.8,9.4c-8.8,9.8,2.5,29.1,16.5,31.9c16.4,3.2,24-2.1,28.6-9
			C439.4,328.8,438.5,309.3,434.4,303.8z M434.1,332.8c-3.7,10.2-17.2,13.6-28.6,10.6c-7-1.9-19-12.8-16.3-25.1
			c2.7-12.3,39.1-17.6,43.5-12.9C436.3,309.2,437.8,322.6,434.1,332.8z"/>
		<linearGradient id="SVGID_85_" gradientUnits="userSpaceOnUse" x1="459.2573" y1="336.5204" x2="463.9158" y2="297.7702">
			<stop  offset="0" style="stop-color:#1C257B"/>
			<stop  offset="1" style="stop-color:#482C83"/>
		</linearGradient>
		<path class="st101" d="M473.2,300.7c-2.7-4.4-18-2.7-21.8,0c-2.5,1.8-1.1,23.2,5.7,32.2c4.3,5.7,10.4,4.3,12.2,3.1
			C474.3,332.4,475.9,305.2,473.2,300.7z M471,330c-2.1,5.8-7.3,7.2-12.4,2.4c-4.6-4.2-8.6-25-5.7-29.5c2.5-3.8,15-4.9,18.5-1
			C475.1,305.8,473.5,323.2,471,330z"/>
		<linearGradient id="SVGID_86_" gradientUnits="userSpaceOnUse" x1="460.2061" y1="336.5204" x2="464.8646" y2="297.7702">
			<stop  offset="0" style="stop-color:#1C257B"/>
			<stop  offset="1" style="stop-color:#65459C"/>
		</linearGradient>
		<path class="st102" d="M474.2,300.7c-2.7-4.4-18-2.7-21.8,0c-2.5,1.8-1.1,23.2,5.7,32.2c4.3,5.7,10.4,4.3,12.2,3.1
			C475.3,332.4,476.8,305.2,474.2,300.7z M472,330c-2.1,5.8-7.3,7.2-12.4,2.4c-4.6-4.2-8.6-25-5.7-29.5c2.5-3.8,15-4.9,18.5-1
			C476.1,305.8,474.4,323.2,472,330z"/>
		<linearGradient id="SVGID_87_" gradientUnits="userSpaceOnUse" x1="442.1728" y1="307.6184" x2="442.9525" y2="301.1332">
			<stop  offset="0" style="stop-color:#1C257B"/>
			<stop  offset="1" style="stop-color:#65459C"/>
		</linearGradient>
		<path class="st103" d="M435.9,306.9c0,0,6.9-5.1,15.4-1.5c0,0-0.2-1.8,0.4-3.1c0,0-6-1.8-17.7,1
			C433.9,303.3,435.5,305.8,435.9,306.9z"/>
		<linearGradient id="SVGID_88_" gradientUnits="userSpaceOnUse" x1="367.8474" y1="348.3474" x2="371.9786" y2="313.9834">
			<stop  offset="0" style="stop-color:#1C257B"/>
			<stop  offset="1" style="stop-color:#65459C"/>
		</linearGradient>
		<path class="st104" d="M387,315.8l-8,2.6l-26.2,27.9c0,0,0.9-0.3,3.2,0.6l23.4-24.8c0,0,3.9-2,6.6-1.5
			C386.1,320.7,386,317.4,387,315.8z"/>
		<linearGradient id="SVGID_89_" gradientUnits="userSpaceOnUse" x1="373.338" y1="331.3615" x2="373.338" y2="321.6738">
			<stop  offset="0" style="stop-color:#8642A0"/>
			<stop  offset="1" style="stop-color:#6456C0"/>
		</linearGradient>
		<polygon class="st105" points="375.9,321.7 376.1,325.7 370.8,331.4 370.5,327.4 		"/>
		<path class="st106" d="M435.9,302.9l1.4,1.4c0,0,4.1-0.9,7.9-0.9c3.9,0,4.8,0.4,4.8,0.4l1-1.6
			C451.1,302.2,444.3,300.7,435.9,302.9z"/>
		<path class="st106" d="M454.7,299.6l0.8,1.1c0,0,5.4-3.2,14.3-1.1l-0.2-1.3C469.6,298.4,462.2,297,454.7,299.6z"/>
		<path class="st106" d="M420.5,303l0.4-1.3c0,0,10-1.1,12.8,1.7c2.7,2.8,3.5,8.7,3.5,8.7l-1.2,0.2c0,0-1-6.3-4-8.1
			C428.9,302.3,420.5,303,420.5,303z"/>
		<path class="st107" d="M398.5,339.5c0,0,5.3,6.6,17.3,5.6c12.1-1,17.2-9.9,17.2-9.9s-5.7,8.9-17.5,9.3
			C403.7,344.9,398.5,339.5,398.5,339.5z"/>
		<path class="st107" d="M459.6,332.4c0,0,3.3,3.7,7,3.2c3.7-0.5,5.1-4.7,5.1-4.7s-2.1,4.3-6,4.1
			C461.7,334.7,459.6,332.4,459.6,332.4z"/>
		<path class="st107" d="M411.3,344.4c0,0,0.9,0.7,3.5,0.8c2.6,0.1,5.3-1.3,5.3-1.3S415,344.7,411.3,344.4z"/>
		<path class="st107" d="M462.4,334.5c0,0,2.9,1,5.2,0c2.3-1,2.8-1.9,2.8-1.9s-0.1,2.7-2.9,3C464.6,336,462.4,334.5,462.4,334.5z"/>
		<path class="st107" d="M402.1,342.4c0,0-0.5-9.7,11-16.4c11.5-6.8,22-1,22-1s0.4,8.4-5.8,14.2C423.1,345,409.7,345.3,402.1,342.4z
			"/>
		<path class="st107" d="M457.2,328.7c0,0,7.7-9.8,16.4-12.9c0,0-0.2,13.3-3.2,16.8S461.7,337.3,457.2,328.7z"/>
		<linearGradient id="SVGID_90_" gradientUnits="userSpaceOnUse" x1="394.6164" y1="333.4122" x2="394.6164" y2="312.0744">
			<stop  offset="0" style="stop-color:#000000"/>
			<stop  offset="1" style="stop-color:#E1D1F5"/>
		</linearGradient>
		<path class="st108" d="M389.5,321.4c0,0,1.2,7.8,5.7,12l4.5-1.1c0,0-3.5-13.5-3.6-20.3C396.1,312.1,390.4,315.5,389.5,321.4z"/>
	</g>
	<linearGradient id="SVGID_91_" gradientUnits="userSpaceOnUse" x1="423.5258" y1="424.5448" x2="423.5258" y2="386.8016">
		<stop  offset="1.598750e-02" style="stop-color:#FFA58B"/>
		<stop  offset="1" style="stop-color:#FF898E"/>
	</linearGradient>
	<path class="st109" d="M467.8,418.5c-0.8,1-1.7,1.8-2.7,2.3c-13.4,6.9-49.1,5.1-68.5-11.9c-7.4-6.5-12.9-14.2-17.3-22.1
		c0.9,1.2,10.8,18.1,34.2,27.5C438,424,466,421,467.8,418.5z"/>
</g>
<g>
	<linearGradient id="SVGID_92_" gradientUnits="userSpaceOnUse" x1="1655.3694" y1="1080" x2="1655.3694" y2="959.3863">
		<stop  offset="0" style="stop-color:#1C257B"/>
		<stop  offset="1" style="stop-color:#482C83"/>
	</linearGradient>
	<path class="st110" d="M1736.8,1080h-55.6c-0.9-2-1.8-4.1-2.6-6.1c0,0,0,0,0,0c-11.3-26.9-20.6-56.8-20.6-56.8
		c-5.4-4-15.2,0-15.2,0c-1.4,2.6-2.7,5.7-3.9,9.2c-4.8,14.1-8.2,33.9-9.9,45.9c0,0.1,0,0.1,0,0.1c-0.9,6.3-1,7.6-1,7.6h-52.7
		c-1.7-17.8-1.5-32.9-1-45.5l0-0.3c0.2-5.1,0.4-9.3,0.7-12.3l0-0.8c0.2-2.6,0.3-4,0.3-4c3.1-20.6,107.7-57.6,107.7-57.6
		s32.6-2.7,40.6,27.3c2,7.5,3.8,17,5.4,27.2c0,0.2,0.1,0.4,0.1,0.6c0.1,0.7,0.2,1.4,0.3,2.1c0.1,0.5,0.1,0.9,0.2,1.4
		c0.1,0.5,0.2,1.1,0.3,1.6c0,0.4,0.1,0.8,0.2,1.2c0.1,0.4,0.1,0.9,0.2,1.3c0,0.4,0.1,0.8,0.2,1.2c0,0.2,0.1,0.5,0.1,0.7
		c0,0.4,0.1,0.7,0.2,1.1c0,0.3,0.1,0.6,0.1,0.9C1734.6,1053.1,1736.8,1080,1736.8,1080z"/>
	<linearGradient id="SVGID_93_" gradientUnits="userSpaceOnUse" x1="1652.5857" y1="1073.8462" x2="1652.5857" y2="993.2576">
		<stop  offset="0" style="stop-color:#8B8BE0"/>
		<stop  offset="1" style="stop-color:#A177B7"/>
	</linearGradient>
	<path class="st111" d="M1730.9,1026C1730.9,1026,1730.9,1026,1730.9,1026c-0.6-0.2-10.5-2.5-30.1,10
		c-19.8,12.5-22.1,36.8-22.2,37.8c-11.3-26.9-20.6-56.8-20.6-56.8c-5.4-4-15.2,0-15.2,0c-1.4,2.6-2.7,5.7-3.9,9.2h0
		c-5.6,15.4-9.5,43.1-9.9,45.9c0,0.1,0,0.1,0,0.1c0,0.1,0,0.1,0,0.1s-4-12.9-21-24.1c-17-11.2-33.7-13.9-33.7-13.9l0-0.3l0.7-12.3
		l0-0.8l118.5-27.8c0,0,31.3,2.5,32.8,6.7c0.7,2,1.8,8.2,2.8,14c0,0.2,0.1,0.4,0.1,0.6c0.1,0.7,0.2,1.4,0.3,2.1
		c0.1,0.5,0.1,0.9,0.2,1.4c0.1,0.5,0.2,1.1,0.3,1.6c0,0.4,0.1,0.8,0.2,1.2c0.1,0.4,0.1,0.9,0.2,1.3c0,0.4,0.1,0.8,0.2,1.2
		c0,0.2,0.1,0.5,0.1,0.7c0,0.4,0.1,0.7,0.2,1.1C1730.9,1025.7,1730.9,1026,1730.9,1026z"/>
	<linearGradient id="SVGID_94_" gradientUnits="userSpaceOnUse" x1="1458.6298" y1="704.5931" x2="1458.6298" y2="561.3252">
		<stop  offset="1.598750e-02" style="stop-color:#FFC2A9"/>
		<stop  offset="1" style="stop-color:#FF9595"/>
	</linearGradient>
	<path class="st112" d="M1474.1,704.6c0,0-8.7-23.9-12.1-44.7c0,0-15-9.2-26.1-29.1c0,0-4.5-9.8-9.6-17.8c-5.1-8-8.9-20.5-7.1-24.6
		c1.8-4,7.4,3.6,10.1,9.1c2.7,5.4,8.9,13.9,8.9,13.9l1.8-2c0,0-4.5-15.4-5.6-22.1c-1.1-6.7-0.4-17,0.9-19.9c1.3-2.9,5.4-0.9,6.7,1.6
		c0,0-1.3-4.5,0.4-6c1.8-1.6,8.9,2.7,11.4,10.5c2.5,7.8,2.2,11.4,3.4,14.5c1.1,3.1,2.9,6.7,2.9,6.7s-2.7-12.7-3.1-20.3
		c-0.4-7.6,0.7-12.6,3.2-13c2.5-0.4,6.5,6.8,6.7,15.7c0.1,6.7,2.4,11.6,4.6,17.4c2.2,5.8,9.2,14,9.2,14s3.3-1.4,3.1-4.7
		c-0.2-3.4-2.5-10.2-1-15.1c2-6.8,8.9-10,11.2-8.9c2.2,1.1-2.3,14.3-0.1,20.9c2.2,6.6,4,13.5,4.7,18c0.7,4.5-11.8,23.7-12.3,27
		c-0.4,3.4,8,21.9,8,21.9S1483.3,699.2,1474.1,704.6z"/>
	<linearGradient id="SVGID_95_" gradientUnits="userSpaceOnUse" x1="1535.7313" y1="802.5029" x2="1535.7313" y2="650.5901">
		<stop  offset="0" style="stop-color:#D191FF"/>
		<stop  offset="1" style="stop-color:#CF95FF"/>
	</linearGradient>
	<path class="st113" d="M1487.3,650.7c0,0,2.2-0.6,5.8,2c3.6,2.7,2.4,11,2.4,11s10.4,19.2,34,40.9c23.5,21.7,60.5,32.4,69.4,35.1
		c8.9,2.7,14,6.9,14,6.9l-31.3,55.9c0,0-20.3-19.7-45.9-36.6c-25.6-17-36-19.7-46.8-31c-10.7-11.3-19.4-34-21.4-36.3
		c-2.1-2.4-8.2-4.2-8.9-8.6c-0.6-4.5,7-13.2,7-13.2l3.1,8.5c0,0,20.6-9.4,20.9-28.4L1487.3,650.7z"/>
	<linearGradient id="SVGID_96_" gradientUnits="userSpaceOnUse" x1="1535.9044" y1="802.5139" x2="1535.9044" y2="650.5842">
		<stop  offset="0" style="stop-color:#9570FF"/>
		<stop  offset="1" style="stop-color:#CF95FF"/>
	</linearGradient>
	<path class="st114" d="M1613.2,747l-31.6,55.5c0,0-1.1-1.1-3.2-3l0,0c-6.7-6.2-23.1-20.6-42.6-33.6c-8.4-5.5-15.1-9.6-20.8-12.8
		c-11.7-6.8-18.8-10.5-26-18.1c-10.7-11.3-19.4-34-21.5-36.3c-1.8-2.1-6.7-3.7-8.4-7.1c0,0,0,0,0,0c-0.2-0.5-0.4-1-0.5-1.5
		c-0.6-4.5,7-13.2,7-13.2l3.1,8.5c0,0,20.5-9.4,20.9-28.4l-2.8-6.1c0,0,2.8-0.6,6.3,2.1c1.5,1.2,2.2,3.3,2.4,5.4
		c0.4,2.8,0,5.6,0,5.6s6.5,11.9,20.7,27.5c0,0,0,0,0.1,0.2c3.8,4.2,8.2,8.7,13.2,13.2c23.5,21.7,60.5,32.4,69.4,35.1
		c3.7,1.1,6.7,2.5,9.1,3.8C1611.3,745.4,1613.2,747,1613.2,747z"/>
	<linearGradient id="SVGID_97_" gradientUnits="userSpaceOnUse" x1="1477.2117" y1="685.1602" x2="1477.2117" y2="653.3576">
		<stop  offset="0" style="stop-color:#FF817F"/>
		<stop  offset="1" style="stop-color:#CF6074"/>
	</linearGradient>
	<path class="st115" d="M1488.1,653.4c0,0-1.5,19.9-23.2,20c0,0,2,7.8,3.9,11.8c0,0,19.9-8.1,20.9-28.4L1488.1,653.4z"/>
	<polygon class="st116" points="1557.9,777 1572.7,775.2 1572.7,781.2 1561.5,782.5 	"/>
	<linearGradient id="SVGID_98_" gradientUnits="userSpaceOnUse" x1="1470.5461" y1="631.1498" x2="1482.5494" y2="594.4384">
		<stop  offset="0" style="stop-color:#FF8883"/>
		<stop  offset="1" style="stop-color:#E8868D"/>
	</linearGradient>
	<path class="st117" d="M1479.5,607.1c0,0-9.2,3.5-14.7,22.2c0,0,10-15.7,17.4-18.8c5.9-2.5,1-15.1,0.1-16.1
		C1485.6,606.9,1479.5,607.1,1479.5,607.1z"/>
	<linearGradient id="SVGID_99_" gradientUnits="userSpaceOnUse" x1="1447.7607" y1="618.989" x2="1456.5934" y2="591.9747">
		<stop  offset="0" style="stop-color:#FF8883"/>
		<stop  offset="1" style="stop-color:#E8868D"/>
	</linearGradient>
	<path class="st118" d="M1436.5,615.3c0,0,12.4-14.3,31.3-19.7C1467.8,595.6,1447.6,594.8,1436.5,615.3z"/>
	<linearGradient id="SVGID_100_" gradientUnits="userSpaceOnUse" x1="1477.0663" y1="692.9205" x2="1477.0663" y2="650.5842">
		<stop  offset="0" style="stop-color:#8B8BE0"/>
		<stop  offset="1" style="stop-color:#A177B7"/>
	</linearGradient>
	<path class="st119" d="M1495.5,658.1c-1.8,5.7-5.2,17.5-12.4,25.4c-12.9,14.2-23.4,8.1-24,8c0,0,0,0,0,0c-0.2-0.5-0.4-1-0.5-1.5
		c-0.6-4.5,7-13.2,7-13.2l3.1,8.5c0,0,20.5-9.4,20.9-28.4l-2.8-6.1c0,0,2.8-0.6,6.3,2.1C1494.7,653.9,1495.3,656,1495.5,658.1z"/>
	<linearGradient id="SVGID_101_" gradientUnits="userSpaceOnUse" x1="1561.446" y1="799.4724" x2="1561.446" y2="691.3686">
		<stop  offset="0" style="stop-color:#8B8BE0"/>
		<stop  offset="1" style="stop-color:#A177B7"/>
	</linearGradient>
	<path class="st120" d="M1607.9,743.5l-29.6,56l0,0c-6.7-6.2-23.1-20.6-42.6-33.6c-8.4-5.5-15.1-9.6-20.8-12.8
		c26.6,11.3,49.6,27.1,49.6,27.1l4.5-42.7c0,0-4.5-0.7-22.9-15.9c-17.3-14.2-28.5-28.4-29.8-30.1c3.8,4.2,8.2,8.7,13.2,13.2
		c23.5,21.7,60.5,32.4,69.4,35.1C1602.5,740.8,1605.6,742.2,1607.9,743.5z"/>
	
		<linearGradient id="SVGID_102_" gradientUnits="userSpaceOnUse" x1="1749.6923" y1="359.6289" x2="1749.6923" y2="272.7061" gradientTransform="matrix(0.9393 0.3432 -0.3432 0.9393 243.6381 -371.7852)">
		<stop  offset="0" style="stop-color:#B31A8F"/>
		<stop  offset="1" style="stop-color:#FE117E"/>
	</linearGradient>
	<path class="st121" d="M1733.7,529.2c0,0,7.9-38.6,40.6-51c0,0,21.3,3.7,29.3,27.8l-16.6,13.5l17.8-8.3c0,0,6.9,8.2,3.8,21.6
		c0,0-22,12.3-41.1,17.6c0,0,22.3-0.1,41.3,11c0,0,0.8,4.4-3.5,9.7c0,0-17.7-11.3-38-13.9l-10.8,6.7L1733.7,529.2z"/>
	<linearGradient id="SVGID_103_" gradientUnits="userSpaceOnUse" x1="1773.7625" y1="571.0332" x2="1773.7625" y2="478.1582">
		<stop  offset="0" style="stop-color:#8B8BE0"/>
		<stop  offset="1" style="stop-color:#A177B7"/>
	</linearGradient>
	<path class="st122" d="M1774.3,478.2c0,0-14,2.9-29.7,33.2c0,0,4.8,5.8,22.5,3.3s36.4-8.7,36.4-8.7l-16.6,13.5l-18.7,11.4
		c0,0,11.4-2.8,22.8-7.7c11.4-4.9,13.6-12,13.6-12s7.6,9,3.8,21.6c0,0-22.3,12.9-41.1,17.6c0,0,10.1,5.5,22.8,11
		c12.7,5.5,15,9.6,15,9.6s-20.9-12.5-38-13.9l-29.2-40.8C1737.9,516.3,1748,488.4,1774.3,478.2z"/>
	<path class="st5" d="M1729.6,524.6c0,0,1.8-7.3,8.3-8.3c6.6-0.9,29.2,14.3,29.2,40.8c0,0,0.3,4.8-7.4,4.2
		C1751.9,560.7,1729.6,524.6,1729.6,524.6z"/>
	<linearGradient id="SVGID_104_" gradientUnits="userSpaceOnUse" x1="1626.913" y1="771.3803" x2="1626.913" y2="730.9506">
		<stop  offset="0" style="stop-color:#FF817F"/>
		<stop  offset="1" style="stop-color:#CF6074"/>
	</linearGradient>
	<path class="st123" d="M1643.9,731c0,0-1,8.9,0,15.2l4.6,3.1c0,0-20.4,22.1-35.2,22.1c-14.7,0-4.5-19.7-4.5-19.7s3.6-2.2,4.5-5.8
		c0.9-3.6-2.2-13.8-2.2-13.8L1643.9,731z"/>
	<linearGradient id="SVGID_105_" gradientUnits="userSpaceOnUse" x1="1636.3461" y1="733.5191" x2="1636.3461" y2="521.7907">
		<stop  offset="1.598750e-02" style="stop-color:#FFC2A9"/>
		<stop  offset="1" style="stop-color:#FF9595"/>
	</linearGradient>
	<path class="st124" d="M1715.6,698.6c-24.2,24.2-67.5,37.5-108.1,34.6l-7-0.7l-0.1,0h-0.1c-1.9-0.2-3.8-0.5-5.8-0.8
		c-44.1-7.1-68.3-48.6-67.7-69.5c0.6-20.8,9.5-30.3,15.5-41c5.9-10.7,8.6-52.1,28.2-75.8c15.6-18.8,60.7-25.1,92.8-23.2
		c33.7,1.9,65.8,23.8,77.7,60.8C1753,619.8,1742.4,671.8,1715.6,698.6z"/>
	<linearGradient id="SVGID_106_" gradientUnits="userSpaceOnUse" x1="1644.0967" y1="733.5191" x2="1644.0967" y2="521.7907">
		<stop  offset="1.598750e-02" style="stop-color:#FFA58B"/>
		<stop  offset="1" style="stop-color:#FF898E"/>
	</linearGradient>
	<path class="st125" d="M1715.6,698.6c-24.2,24.2-67.5,37.5-108.1,34.6l-7-0.7l-0.1,0c27.6-1.6,74.5-5.9,90-36.3
		c16.6-32.3,7.3-55.1,7.3-55.1c-30.4,23.5-75,2.1-75,2.1c-4.8-49.5,19.4-99.3,19.4-99.3c-33.1-10.8-51.1,11.2-51.1,11.2
		c1.7,42.9-19.9,72.6-19.9,72.6c-21.6,10.1-28.8-6.5-28.8-6.5c5.9-10.7,8.6-52.1,28.2-75.8c15.6-18.8,60.7-25.1,92.8-23.2
		c33.7,1.9,65.8,23.8,77.7,60.8C1753,619.8,1742.4,671.8,1715.6,698.6z"/>
	<linearGradient id="SVGID_107_" gradientUnits="userSpaceOnUse" x1="1668.9462" y1="698.5624" x2="1668.9462" y2="502.6454">
		<stop  offset="0" style="stop-color:#B31A8F"/>
		<stop  offset="1" style="stop-color:#FE117E"/>
	</linearGradient>
	<path class="st126" d="M1636.5,522.6c0,0-12.5-9-28.1-7.2c-15.6,1.8-28.8,9.1-36.6,28.5l-5.9,7.8c0,0,6.7-30.9,23.7-43.8
		s56.9,2.6,56.9,2.6s12.1-3.1,31.4-2.4c29.4,1.1,54.5,9.9,79.7,41.9c24.9,31.6,13,104.5-2.2,123.7c-15.2,19.2-39.8,25-39.8,25
		l-0.2-27c0,0,20.1-42.5,12.4-82c-8.2-42-33.4-57.3-54.2-62.2C1648.5,521.4,1636.5,522.6,1636.5,522.6z"/>
	<linearGradient id="SVGID_108_" gradientUnits="userSpaceOnUse" x1="1735.1594" y1="719.7384" x2="1735.1594" y2="655.9961">
		<stop  offset="1.598750e-02" style="stop-color:#FFAC8B"/>
		<stop  offset="1" style="stop-color:#FF9595"/>
	</linearGradient>
	<path class="st127" d="M1716.8,670.3c0,0,19.7-20.3,36.6-12.5c20.1,9.2,14.3,42-1.8,55.4c-14,11.6-39.6,7.1-47.4-8
		C1704.3,705.1,1701.3,683.1,1716.8,670.3z"/>
	<path class="st40" d="M1713.7,686.1c0,0,14-13.7,29.8-12.2c15.8,1.5,15.9,15.2,15.9,15.2s-3.4-9.7-13.5-10.1
		c-10.1-0.4-13.6,7.1-13.6,7.1s5.2-0.3,7.7,7.9c2.5,8.2-11.9,17.6-20.5,12.5C1710.8,701.4,1713.7,686.1,1713.7,686.1z"/>
	<linearGradient id="SVGID_109_" gradientUnits="userSpaceOnUse" x1="1603.77" y1="543.8591" x2="1603.77" y2="511.4044">
		<stop  offset="0" style="stop-color:#B31A8F"/>
		<stop  offset="1" style="stop-color:#92117E"/>
	</linearGradient>
	<path class="st128" d="M1571.1,543.9c0,0,22.6-19.3,65.4-21.3c0,0-21.8-15.4-37.3-10C1585.2,517.4,1572.2,538,1571.1,543.9z"/>
	<linearGradient id="SVGID_110_" gradientUnits="userSpaceOnUse" x1="1595.0863" y1="597.5157" x2="1595.0863" y2="512.1027">
		<stop  offset="0" style="stop-color:#D61A8F"/>
		<stop  offset="1" style="stop-color:#FE3CA6"/>
	</linearGradient>
	<path class="st129" d="M1641.5,522.5c0,0-27.6-18.7-59.8-5.9c-31.5,12.5-35.5,56.3-31.8,80.9l6.4-18.7c0,0-2.2-48,25.5-59.6
		c27.7-11.6,47.9,4,47.9,4L1641.5,522.5z"/>
	<linearGradient id="SVGID_111_" gradientUnits="userSpaceOnUse" x1="1661.3877" y1="1027.3949" x2="1661.3877" y2="737.4159">
		<stop  offset="0" style="stop-color:#D191FF"/>
		<stop  offset="1" style="stop-color:#CF95FF"/>
	</linearGradient>
	<path class="st130" d="M1680.7,835.3c3.9,31.7,17.9,73.1,27.4,94.7c0.4,0.9,0.8,1.9,1.2,2.7c9.4,20.5,15.2,17.8,17.4,23.7
		c2.2,5.8-1.8,18.8-1.8,18.8c6.7,10.7,4,23.2,4,23.2l0,0c-1.1,1.2-19.7,20.3-77.8,26.8c-20.7,2.3-36.9,2.6-49.2,2
		c-0.2,0-0.5,0-0.7,0c-0.4,0-0.9,0-1.3-0.1h-0.1c-1.6-0.1-3.1-0.2-4.5-0.3c-0.2,0-0.4,0-0.7,0c-0.8-0.1-1.5-0.1-2.2-0.2
		c-2.1-0.2-3.5-0.4-3.5-0.4c-1.2-0.1-2.3-0.3-3.3-0.4c-11.8-1.7-16.8-4.1-16.8-4.1c-2.9-9.4,0-17,0-17c-0.1-0.1-0.3-0.2-0.4-0.4
		c-2-1.6-10-8.3-10.5-16c0-0.1,0-0.1,0-0.1c-0.4-8.9,4.5-14.7,7.6-25c3.1-10.3,4-119.7,9.4-149.6c5.4-29.9,27.3-64.8,27.3-64.8
		s-3.3-8.9,3.2-8.5c6.5,0.4,8,2.6,8,2.6s0.6,2.1-0.1,4.2c-3.8,6.7-11.4,18.7,1.1,19.1c17.9,0.4,29.1-28.6,29.1-28.6
		c6.1,0.4,5,7.6,5,7.6s9.1,2.7,13.6,6.1s20,18,34.7,37.6c14.8,19.7,43.3,28.6,57.2,44.7c13.8,16.1,10.5,39.9,10.5,39.9
		c-7,6.2-35,7.9-35,7.9s-7.2-16.5-17.9-28.2C1701,841.5,1680.7,835.3,1680.7,835.3z"/>
	<path class="st131" d="M1689.6,961.5c0,0,10.9,2.9,12.4,5.8c1.5,2.9,1.8,7.5,1.8,7.5l3.5-2.6c0,0,1.2-5.6-0.2-7.4
		c-1.4-1.8-8.4-3.5-8.4-3.5L1689.6,961.5z"/>
	<path class="st131" d="M1651.2,953.5c0,0-7.5,7.3-14.8,11.5l8.3,3.1c0,0,11.6-10.2,14.1-14.6H1651.2z"/>
	<linearGradient id="SVGID_112_" gradientUnits="userSpaceOnUse" x1="1643.7228" y1="1027.4001" x2="1643.7228" y2="929.9279">
		<stop  offset="0" style="stop-color:#8B8BE0"/>
		<stop  offset="1" style="stop-color:#A177B7"/>
	</linearGradient>
	<path class="st132" d="M1729,998.3c0,0-17.9,20.1-77.8,26.8c-59.9,6.7-82.4-3.6-82.4-3.6c86.5,19.2,152.1-20.5,152.1-20.5
		c3.9-9.5-7.3-23.8-7.3-23.8c-65.8,26.4-144.8,27.3-144.8,27.3c-0.1-0.1-0.3-0.2-0.4-0.4c-0.2-0.2-0.5-0.4-0.8-0.6
		c-9.3-7.5-9.7-14.4-9.7-15.4c0-0.1,0-0.1,0-0.1s32.5,10.4,80.2,0.9c47.7-9.5,84.1-32.5,84.1-32.5s-78,4.8-87.1,0
		c-9.1-4.8-22.2-17.3-22.2-17.3l95.3-9.3c0.4,0.9,0.8,1.9,1.2,2.7c9.4,20.5,15.2,17.8,17.4,23.7c2.2,5.8-1.8,18.8-1.8,18.8
		C1731.7,985.8,1729,998.3,1729,998.3z"/>
	<g>
		<linearGradient id="SVGID_113_" gradientUnits="userSpaceOnUse" x1="1648.4773" y1="860.8663" x2="1743.002" y2="860.8663">
			<stop  offset="0" style="stop-color:#5142D8"/>
			<stop  offset="1" style="stop-color:#3989E8"/>
		</linearGradient>
		<polygon class="st133" points="1648.5,774.2 1736.8,774.2 1743,778.4 1722,946.8 1716.9,947.5 1648.5,939.2 		"/>
		<linearGradient id="SVGID_114_" gradientUnits="userSpaceOnUse" x1="1713.3499" y1="947.523" x2="1713.3499" y2="774.2096">
			<stop  offset="0" style="stop-color:#3D2CB0"/>
			<stop  offset="1" style="stop-color:#0355C7"/>
		</linearGradient>
		<polygon class="st134" points="1736.8,774.2 1716.9,947.5 1689.9,944.7 1711,774.2 		"/>
		<linearGradient id="SVGID_115_" gradientUnits="userSpaceOnUse" x1="1651.5281" y1="953.4995" x2="1651.5281" y2="762.1844">
			<stop  offset="0" style="stop-color:#744FD8"/>
			<stop  offset="1" style="stop-color:#3996F7"/>
		</linearGradient>
		<path class="st135" d="M1591.7,938.6c0,0-2.1-115,5.2-174.5c0,0,63.1-3.4,109.6-1.1l5.2,2.8l-14.5,185.2l-7.3,2.4L1591.7,938.6z"
			/>
		<linearGradient id="SVGID_116_" gradientUnits="userSpaceOnUse" x1="1713.644" y1="947.8802" x2="1713.644" y2="771.3803">
			<stop  offset="0" style="stop-color:#D0C7F8"/>
			<stop  offset="1" style="stop-color:#FFFFFF"/>
		</linearGradient>
		<path class="st136" d="M1711.2,771.4c0,0,9.2,7.6,18.7,8.2L1713.3,944c0,0-9.6-1.3-16,3.9L1711.2,771.4z"/>
		<linearGradient id="SVGID_117_" gradientUnits="userSpaceOnUse" x1="1700.7601" y1="953.4995" x2="1700.7601" y2="763.0246">
			<stop  offset="0" style="stop-color:#5142D8"/>
			<stop  offset="1" style="stop-color:#3989E8"/>
		</linearGradient>
		<polygon class="st137" points="1711.6,765.9 1706.4,763 1689.9,953.5 1697.1,951.1 		"/>
	</g>
	<linearGradient id="SVGID_118_" gradientUnits="userSpaceOnUse" x1="1657.0073" y1="908.9255" x2="1675.7693" y2="851.5433">
		<stop  offset="0" style="stop-color:#8B8BE0"/>
		<stop  offset="1" style="stop-color:#A177B7"/>
	</linearGradient>
	<path class="st138" d="M1603,868.1c0,0,11,14,16.7,19.7l4.8,4.8l-13.4,0.5c0,0,12,5.3,21.8,7.5s61.2,3.1,61.2,3.1h6.6l0.6-7.7
		l16.5-1.9l4.7,3.1l5.5-0.3l1.7-13.6l-7.6-16.7l-54.3,3.1L1603,868.1z"/>
	<linearGradient id="SVGID_119_" gradientUnits="userSpaceOnUse" x1="1596.8881" y1="857.3917" x2="1705.6249" y2="857.3917">
		<stop  offset="1.598750e-02" style="stop-color:#FFC2A9"/>
		<stop  offset="1" style="stop-color:#FF9595"/>
	</linearGradient>
	<path class="st139" d="M1692.4,854.9l-4.8-0.1c0,0-3.6-15.6-6.8-19.5c-3.3-3.9-15.2-6.3-22.9-11c-7.7-4.8-10.4-7.1-12.2-4.5
		c-1.8,2.7,0.3,12.7,5.6,15.2c5.3,2.5,10.8,3.6,12,5.1c1.2,1.5,1.3,4.6,1.3,4.6s-15.5,2.4-23.5-1.2c-8-3.6-15.3-5.7-22-5.5
		c-6.7,0.1-8.8,2.8-8.6,4.3c0.1,1.5,12.8,7,18.2,9.4c5.4,2.4,9.4,4.6,9.4,4.6s-7.7,1.9-13.8,1.3c-6.1-0.6-11.3-3.1-18-2.4
		c-6.7,0.7-8.6,3.4-9.1,4.9c-0.4,1.5,4,3.1,4,3.1s-1.2,0.3-1.3,1.9c-0.1,1.6,9.7,9.2,16.5,13.1c6.8,3.9,17,4.6,17,4.6
		s-0.1,2.1-2.2,3.6c-2.1,1.5-7.3,1.5-11.2,1.3c-3.9-0.1-11.6-0.1-13.1,2.2c-1.5,2.4,11,4.9,17.1,5.8c6.1,0.9,26.5-0.6,39.3-3.7
		c12.8-3.1,22.9-11.1,22.9-11.1l19.7,0.4C1705.6,881.4,1705.6,861,1692.4,854.9z"/>
	<path class="st47" d="M1629.3,600.6c0,0,3.6-22.2,19.7-26.1c17.3-4.1,39.5,11.9,40.9,36.9L1629.3,600.6z"/>
	<path class="st47" d="M1577.6,595.6c0,0,2.6-22.6-6.5-35.3c-9.1-12.7-16.7,20.4-16.7,20.4L1577.6,595.6z"/>
	<linearGradient id="SVGID_120_" gradientUnits="userSpaceOnUse" x1="1727.2107" y1="888.1074" x2="1727.2107" y2="829.6047">
		<stop  offset="0" style="stop-color:#D191FF"/>
		<stop  offset="1" style="stop-color:#CF95FF"/>
	</linearGradient>
	<path class="st140" d="M1763.9,874.6c-2.3,2.1-13.1,7.9-44.9,10.1c0,0-7,4.2-13.3,3.3c-6.3-0.9-8.3-6.7-8.3-6.7l8.3,0.2
		c0,0-2.8-21.3-15.7-26.6c0,0-1.5-6.6,1.9-7.9c2.7-1.1,8.7,2.2,8.7,2.2s7.4-0.7,18.8-5.4c11.4-4.7,12.8-14.1,19.1-14.1
		c6.2,0,17.6,4.5,21.9,19.1c0.7,2.4,1.3,4.6,1.9,6.6C1764.9,866.1,1765.8,872.8,1763.9,874.6z"/>
	<linearGradient id="SVGID_121_" gradientUnits="userSpaceOnUse" x1="1658.3431" y1="647.6176" x2="1658.3431" y2="579.0167">
		<stop  offset="0" style="stop-color:#D0C7F8"/>
		<stop  offset="1" style="stop-color:#FFFFFF"/>
	</linearGradient>
	<path class="st141" d="M1653.3,579.1c-13.3,0.6-24.3,14.3-26.4,31.9c-1.9,16.2,0,25,7.1,30.8c7,5.8,38.5,10.1,49.9-1.8
		C1696.8,626.4,1692.6,577.3,1653.3,579.1z"/>
	<linearGradient id="SVGID_122_" gradientUnits="userSpaceOnUse" x1="1648.9927" y1="564.674" x2="1700.7378" y2="564.674">
		<stop  offset="0" style="stop-color:#BD33A0"/>
		<stop  offset="1" style="stop-color:#0665A5"/>
	</linearGradient>
	<path class="st142" d="M1649,542.9c0,0,0.1,8.8,2.8,14.2c0,0,23.5,4.4,33.1,11.5c9.9,7.4,15.9,17.9,15.9,17.9s-3.1-12.5-13.6-23.9
		C1677,551.6,1654.6,549.6,1649,542.9z"/>
	<linearGradient id="SVGID_123_" gradientUnits="userSpaceOnUse" x1="1576.4312" y1="538.2608" x2="1583.1008" y2="560.0764">
		<stop  offset="0" style="stop-color:#0665A5"/>
		<stop  offset="1" style="stop-color:#BD33A0"/>
	</linearGradient>
	<path class="st143" d="M1570.3,545.8c0,0,13.7-2.4,18.6,12.5c0,0-1.1-18.2-6.6-21.8C1582.4,536.5,1573.8,538.4,1570.3,545.8z"/>
	<linearGradient id="SVGID_124_" gradientUnits="userSpaceOnUse" x1="1561.3151" y1="626.442" x2="1561.3151" y2="564.6741">
		<stop  offset="0" style="stop-color:#D0C7F8"/>
		<stop  offset="1" style="stop-color:#FFFFFF"/>
	</linearGradient>
	<path class="st144" d="M1577.6,595.6c-0.7,12.5-4.6,25.3-10.3,29.3c-0.1,0.1-0.2,0.1-0.4,0.2c-0.1,0.1-0.2,0.1-0.3,0.2
		c-6.7,3.9-22.6-2.7-21.7-10.8c1.2-11.7,10-39,15.7-46c4.2-5.1,9.9-7.2,15,8C1577.4,581.8,1578,588.7,1577.6,595.6z"/>
	<radialGradient id="SVGID_125_" cx="1660.3169" cy="632.9846" r="21.5411" gradientUnits="userSpaceOnUse">
		<stop  offset="0" style="stop-color:#CF95FF"/>
		<stop  offset="1" style="stop-color:#8161FF"/>
	</radialGradient>
	<circle class="st145" cx="1659.6" cy="624.1" r="22"/>
	<linearGradient id="SVGID_126_" gradientUnits="userSpaceOnUse" x1="1659.6313" y1="639.3055" x2="1659.6313" y2="608.8376">
		<stop  offset="0" style="stop-color:#8642A0"/>
		<stop  offset="1" style="stop-color:#4E37B7"/>
	</linearGradient>
	<path class="st146" d="M1674.9,624.1c0,8.4-6.8,15.2-15.2,15.2c-8.4,0-15.2-6.8-15.2-15.2s6.8-15.2,15.2-15.2
		C1668,608.8,1674.9,615.7,1674.9,624.1z"/>
	<radialGradient id="SVGID_127_" cx="1564.989" cy="613.2896" r="15.5928" gradientUnits="userSpaceOnUse">
		<stop  offset="0" style="stop-color:#CF95FF"/>
		<stop  offset="1" style="stop-color:#8161FF"/>
	</radialGradient>
	<path class="st147" d="M1577.6,595.6c-0.7,12.5-4.6,25.3-10.3,29.3c-0.1,0.1-0.2,0.1-0.4,0.2c-1.8,1-3.6,1.4-5.5,1.1
		c-7.1-1.1-11.3-11.7-9.5-23.7c1.8-12,9.1-20.9,16.1-19.8C1572.9,583.4,1576.4,588.6,1577.6,595.6z"/>
	
		<linearGradient id="SVGID_128_" gradientUnits="userSpaceOnUse" x1="1571.2435" y1="547.2211" x2="1571.2435" y2="516.7516" gradientTransform="matrix(0.9885 0.1509 -0.1509 0.9885 93.7072 -158.2535)">
		<stop  offset="0" style="stop-color:#8642A0"/>
		<stop  offset="1" style="stop-color:#4E37B7"/>
	</linearGradient>
	<path class="st148" d="M1575.5,606.1c-1.3,8.3-6.3,14.5-11.2,13.7s-7.8-8.1-6.6-16.4c1.3-8.3,6.3-14.5,11.2-13.7
		C1573.8,590.4,1576.7,597.8,1575.5,606.1z"/>
	<path class="st11" d="M1643.7,615.8c0,2.4-1.9,4.3-4.3,4.3c-2.4,0-4.3-1.9-4.3-4.3c0-2.4,1.9-4.3,4.3-4.3
		C1641.7,611.5,1643.7,613.4,1643.7,615.8z"/>
	<path class="st11" d="M1555,598c-0.2,2.4-1.5,4.2-2.9,4.1c-1.4-0.1-2.3-2.1-2.1-4.5s1.5-4.2,2.9-4.1
		C1554.3,593.6,1555.2,595.6,1555,598z"/>
	<g>
		
			<linearGradient id="SVGID_129_" gradientUnits="userSpaceOnUse" x1="1585.6135" y1="496.0078" x2="1585.6135" y2="469.2859" gradientTransform="matrix(0.9505 0.3108 -0.3108 0.9505 226.3227 -312.8776)">
			<stop  offset="0" style="stop-color:#FF8883"/>
			<stop  offset="1" style="stop-color:#FFB1A4"/>
		</linearGradient>
		<path class="st149" d="M1600.3,644.7c0,0-7.5,1.8-12.8,4.4c-5.2,2.7-9.6,1.8-9.6,1.8c-8.9-4.8-13.2-10.8-12.4-14.7
			c0.2-1,0.6-1.8,1.4-2.4c4-3.2,10.2-5.5,10.2-5.5c9.1-4.7,23,0.8,24.1,5.4c0.8,2.9,0.1,6.7-0.4,8.9
			C1600.5,643.9,1600.3,644.7,1600.3,644.7z"/>
		
			<linearGradient id="SVGID_130_" gradientUnits="userSpaceOnUse" x1="1585.6343" y1="496.0078" x2="1585.6343" y2="480.9449" gradientTransform="matrix(0.9505 0.3108 -0.3108 0.9505 226.3227 -312.8776)">
			<stop  offset="0" style="stop-color:#FF8883"/>
			<stop  offset="1" style="stop-color:#E8868D"/>
		</linearGradient>
		<path class="st150" d="M1600.3,644.7c0,0-7.5,1.8-12.8,4.4c-5.2,2.7-9.6,1.8-9.6,1.8c-8.9-4.8-13.2-10.8-12.4-14.7
			c0,0,3.6,3.3,14,4.6c9.2,1.1,17.2,0.5,21.4,1.8C1600.5,643.9,1600.3,644.7,1600.3,644.7z"/>
		<path class="st60" d="M1589,648.4c0,0,4.7-5.8,11.2-3.7C1600.3,644.7,1594.3,646.3,1589,648.4z"/>
	</g>
	<path class="st40" d="M1561.5,665.7c0,0-0.7,26.8,9.1,40s28.1,9.4,38.9-2.5c10.7-11.8,13.2-28.2,13.2-28.2L1561.5,665.7z"/>
	<path class="st151" d="M1623.9,666.7c-0.5,7.3-2.3,13.9-5.1,19.6v0c-8.9,18.7-27.3,28.3-40.9,21.7c-5.7-2.7-9.4-8.5-11.8-15
		c-4.5-12.2-4.6-27.4-4.8-32c-0.3-6.3-2.7-8-3.3-8.3l7.4,3.2c15.7,0.3,29,6.4,36.2,7.6c8.4,1.4,15.7-0.5,19.2,0.1
		C1624.5,664.3,1623.9,666.7,1623.9,666.7z"/>
	<linearGradient id="SVGID_131_" gradientUnits="userSpaceOnUse" x1="1592.4744" y1="710.1462" x2="1592.4744" y2="682.1292">
		<stop  offset="0" style="stop-color:#CF6074"/>
		<stop  offset="1" style="stop-color:#E04A7F"/>
	</linearGradient>
	<path class="st152" d="M1618.8,686.3L1618.8,686.3c-8.9,18.7-27.3,28.3-40.9,21.7c-5.7-2.7-9.4-8.5-11.8-15c0,0,9.7-8.8,28.5-10.6
		C1613.5,680.7,1618.8,686.3,1618.8,686.3z"/>
	<path class="st153" d="M1565.4,656c0,0,0.8,7.7,12.5,11.3s29.3-3.2,29.3-3.2s-4.8-0.1-12.6-2.3
		C1586.9,659.5,1574.5,655.4,1565.4,656z"/>
	<path class="st40" d="M1616.4,660.1c0,0,8.5,4.4,11.5,12.5c0,0-0.5-8-2.7-11.8S1616.4,660.1,1616.4,660.1z"/>
	<path class="st40" d="M1559.4,653.4c0,0,3.2,1.5,6,1.2c2.8-0.3,10.5-1.3,21.6,2.9c11.1,4.2,18.1,5.3,22.6,5.9
		c4.5,0.6,8.9,0.3,8.9,0.3s-7.2,1-12,0.8s-17-5.2-27.1-6.8c-10.1-1.6-14-1-14-1S1561.3,655.4,1559.4,653.4z"/>
	<path class="st40" d="M1634,641.8c0,0,28,8.8,55.9-5.6c0,0-4.4,7.3-15,11.4C1664.2,651.7,1644.4,651.2,1634,641.8z"/>
	<path class="st40" d="M1545.4,611.5c0,0,5.4,15,23.7,11.8c0,0-9.1,8.9-16.6,5C1541.8,622.7,1545.4,611.5,1545.4,611.5z"/>
	<path class="st154" d="M1568.6,698.6c0,0,5.6-11.1,16-14.3c0,0-13.4,2.7-18.4,8.8L1568.6,698.6z"/>
	<path class="st153" d="M1568.1,697.6c0,0,3.3,1,10.9,3.5c8.4,2.8,17.1,7.3,17.1,7.3S1576.4,716.4,1568.1,697.6z"/>
	<linearGradient id="SVGID_132_" gradientUnits="userSpaceOnUse" x1="1743.615" y1="671.5207" x2="1743.615" y2="540.4713">
		<stop  offset="0" style="stop-color:#8B8BE0"/>
		<stop  offset="1" style="stop-color:#A177B7"/>
	</linearGradient>
	<path class="st155" d="M1726.4,540.5c0,0,8.2,34,19.5,42.1c11.4,8.2,21-3.8,20.3-16.6c0,0,15.8,40.6-5.6,98.4
		c0,0-4.4-11.6-23.4-6.7c-13.4,3.5-21.9,13.8-21.9,13.8s7.7-19.1,10.7-37.3c3-18.2,0.2-51.6,0.2-51.6L1726.4,540.5z"/>
	<linearGradient id="SVGID_133_" gradientUnits="userSpaceOnUse" x1="1717.9922" y1="782.5486" x2="1717.9922" y2="530.9086">
		<stop  offset="0" style="stop-color:#B31A8F"/>
		<stop  offset="1" style="stop-color:#FE117E"/>
	</linearGradient>
	<path class="st156" d="M1689.9,533.3c0,0,22.3,19.2,30.9,56.7c8.6,37.5-0.7,98.7,1.1,126s15.5,27.2,13.3,66.6c0,0,9-33.5-3.9-59.9
		c-13-26.4,0.6-53.5,12.1-93.3c11.5-39.8-16.6-90.7-25.5-96.1C1708.9,527.9,1689.9,533.3,1689.9,533.3z"/>
	<linearGradient id="SVGID_134_" gradientUnits="userSpaceOnUse" x1="1442.9237" y1="598.1793" x2="1451.4487" y2="572.1061">
		<stop  offset="0" style="stop-color:#FF8883"/>
		<stop  offset="1" style="stop-color:#E8868D"/>
	</linearGradient>
	<path class="st157" d="M1442,569c0,0,2.2,5.5,2.8,12.1c0.6,6.6,0.6,6.6,0.6,6.6l5,13l2.8-1.5c0,0-6.2-8.5-7.3-11.8
		c-1.1-3.3,0.8-6.2-0.7-11.5C1443.5,570.4,1442,569,1442,569z"/>
	<linearGradient id="SVGID_135_" gradientUnits="userSpaceOnUse" x1="1693.4204" y1="881.3807" x2="1700.9175" y2="858.4512">
		<stop  offset="0" style="stop-color:#FF817F"/>
		<stop  offset="1" style="stop-color:#CF6074"/>
	</linearGradient>
	<path class="st158" d="M1689.9,854.8c0,0,7,15.5,2.9,26.3l12.8,0.2C1705.6,881.4,1704.9,862.8,1689.9,854.8z"/>
	<linearGradient id="SVGID_136_" gradientUnits="userSpaceOnUse" x1="1618.2991" y1="871.0779" x2="1620.1012" y2="865.5662">
		<stop  offset="0" style="stop-color:#FF817F"/>
		<stop  offset="1" style="stop-color:#CF6074"/>
	</linearGradient>
	<path class="st159" d="M1600.9,863.3c0,0,12.9,5.1,19.4,6.5c6.9,1.5,17.7,1.7,17.7,1.7s-8.7,2-18,0
		C1610.8,869.4,1600.9,863.3,1600.9,863.3z"/>
	<linearGradient id="SVGID_137_" gradientUnits="userSpaceOnUse" x1="1727.2592" y1="888.1074" x2="1727.2592" y2="846.9343">
		<stop  offset="0" style="stop-color:#8B8BE0"/>
		<stop  offset="1" style="stop-color:#A177B7"/>
	</linearGradient>
	<path class="st160" d="M1763.9,874.6c-2.2,2.2-13.1,7.9-44.9,10.1c0,0-7,4.2-13.3,3.3c-6.3-0.9-8.3-6.7-8.3-6.7l8.3,0.2
		c0,0-2.8-21.3-15.7-26.6c0,0-1.5-6.6,1.9-7.9c0,0,17.7,18.7,19.9,35.5c0,0,11.1-0.9,18.3-12.1l-1.8,6.7c0,0,28.8-11.1,32.8-17.4
		c0.7-1.1,2.9-2.6,2.9-4.3C1765.5,863.7,1765.2,873.2,1763.9,874.6z"/>
	<linearGradient id="SVGID_138_" gradientUnits="userSpaceOnUse" x1="1741.4299" y1="835.0349" x2="1741.4299" y2="820.0873">
		<stop  offset="0" style="stop-color:#8B8BE0"/>
		<stop  offset="1" style="stop-color:#A177B7"/>
	</linearGradient>
	<path class="st161" d="M1731.2,834.3c0,0,10.5-4.7,20.5,0.7c0,0-5.6-9.5-13.9-14.9l-1.1,9.6
		C1736.7,829.7,1733.8,830.6,1731.2,834.3z"/>
	<linearGradient id="SVGID_139_" gradientUnits="userSpaceOnUse" x1="1637.6984" y1="997.9072" x2="1637.6984" y2="973.5766">
		<stop  offset="0" style="stop-color:#8B8BE0"/>
		<stop  offset="1" style="stop-color:#A177B7"/>
	</linearGradient>
	<path class="st162" d="M1587.6,992.6c0,0,14.1,8.3,45.5,4c31.4-4.3,54.7-23.1,54.7-23.1s-27,13-55.9,16.6
		C1603,993.7,1587.6,992.6,1587.6,992.6z"/>
	<linearGradient id="SVGID_140_" gradientUnits="userSpaceOnUse" x1="1584.5876" y1="1026.0306" x2="1584.5876" y2="1004.3156">
		<stop  offset="0" style="stop-color:#8B8BE0"/>
		<stop  offset="1" style="stop-color:#A177B7"/>
	</linearGradient>
	<path class="st163" d="M1580.1,1004.3c0.2,1.7,2.3,15.2,8.9,21.7c-1.2-0.1-2.3-0.3-3.3-0.4l0,0
		C1585.7,1025.6,1581.3,1022,1580.1,1004.3z"/>
	<linearGradient id="SVGID_141_" gradientUnits="userSpaceOnUse" x1="1683.8557" y1="577.348" x2="1683.8557" y2="510.3703">
		<stop  offset="0" style="stop-color:#B31A8F"/>
		<stop  offset="1" style="stop-color:#92117E"/>
	</linearGradient>
	<path class="st164" d="M1651.2,523.2c0,0,25.7,2.9,38.7,11.5c12.9,8.6,26.6,42.6,26.6,42.6s-5.4-53-19.1-61.9
		C1683.7,506.5,1663.1,509.6,1651.2,523.2z"/>
	<linearGradient id="SVGID_142_" gradientUnits="userSpaceOnUse" x1="1711.6418" y1="769.1465" x2="1711.6418" y2="507.8061">
		<stop  offset="0" style="stop-color:#D61A8F"/>
		<stop  offset="1" style="stop-color:#FE3CA6"/>
	</linearGradient>
	<path class="st165" d="M1651.2,523.2c0,0,12.3-14.8,28.4-15.4c0,0,27.7-0.2,39.8,17c12.1,17.2,15.4,65.4,24.1,87.8
		c8.7,22.3,25.7,42.7,28.4,79.7c2.7,37.1-26,76.8-26,76.8s16.3-54.6,14.4-90.2c-2-35.6-23.9-56.3-39.5-88.9
		c-15.6-32.6-14.1-69.7-37.1-76C1664.7,508.9,1651.2,523.2,1651.2,523.2z"/>
	<path class="st116" d="M1480.1,722.7l7.4-3l2.1,4.1l-6.1,4.2C1483.6,728.1,1481.3,724.6,1480.1,722.7z"/>
	<polygon class="st116" points="1529.8,714 1529.8,735.2 1535.9,735.2 1535.7,717.6 	"/>
	<polygon class="st116" points="1498.5,685.2 1510.1,684.2 1515,689.9 1500.8,689.9 	"/>
	<polygon class="st131" points="1580.1,963 1591,978.7 1599.3,974.8 1584.4,961.5 	"/>
	<polygon class="st131" points="1569.3,896.1 1577.7,901.1 1577.7,908.2 1569.3,903.9 	"/>
	<polygon class="st131" points="1677.2,1004.3 1665.5,1023.2 1676.6,1021.1 1684.2,1005.9 	"/>
	<path class="st131" d="M1760.4,843.7c0,0-2.9,6.1-7.6,9.5l3.8,6.5c0,0,6.1-4.4,6.8-6.6C1763.4,853,1761.7,846.4,1760.4,843.7z"/>
	<path class="st131" d="M1720.1,845.9c0,0,11,0.6,16.7-1.2l4.2,4.6c0,0-12.2,2.5-22.2,0.8L1720.1,845.9z"/>
	<path class="st131" d="M1738.1,882.4c0,0,3.7-2.3,4.9-9.3l7.1-2.1c0,0-0.3,4.8-4,10.1C1746.1,881.1,1739.9,882.2,1738.1,882.4z"/>
	<path class="st131" d="M1655,747.4l-6.6,8.3l10,2l5.3-5.2C1663.8,752.6,1658.7,748.8,1655,747.4z"/>
	<linearGradient id="SVGID_143_" gradientUnits="userSpaceOnUse" x1="1665.5063" y1="1027.3949" x2="1665.5063" y2="974.7963">
		<stop  offset="0" style="stop-color:#8B8BE0"/>
		<stop  offset="1" style="stop-color:#A177B7"/>
	</linearGradient>
	<path class="st166" d="M1729,998.3L1729,998.3c-1.2,1.2-19.7,20.3-77.8,26.8c-20.7,2.3-36.9,2.6-49.2,2c3.3,0.1,6.6,0,9.1-0.4
		c0,0-1.7-16.8-2.4-25c0,0,3.9,18.2,8.7,24.7c0,0,17.4-0.3,24.6-1.9c0,0-3.8-16.5-4.2-26.6c0,0,3.6,16.1,9.5,26.6l10-2.7
		c0,0-2.7-12.7-4.5-26.9c0,0,5.1,20.5,9.6,27.4c0,0,21.7-3.6,25.5-7.2c0,0,3.1-10-1.3-28.5c0,0,4.6,12.6,6.6,27.3l13.9-5.1
		c0,0,2.3-16.1,0.6-29.3c0,0,4.6,16.9,4,27.3l11.1-7c0,0,0.6-10.5-3.1-25.2c0,0,6.2,11.8,6.7,24L1729,998.3z"/>
</g>
</svg>
